SplineFontDB: 3.2
FontName: simulacra
FullName: simulacra
FamilyName: simulacra
Weight: Book
Copyright: Jonathan Crum
Version: 1.000
ItalicAngle: 0
UnderlinePosition: -256
UnderlineWidth: 128
Ascent: 1792
Descent: 256
InvalidEm: 0
sfntRevision: 0x00010000
LayerCount: 2
Layer: 0 1 "Back" 1
Layer: 1 1 "Fore" 0
XUID: [1021 263 1508069811 220786]
StyleMap: 0x0040
FSType: 0
OS2Version: 3
OS2_WeightWidthSlopeOnly: 0
OS2_UseTypoMetrics: 0
CreationTime: 1380047040
ModificationTime: 1593823458
PfmFamily: 81
TTFWeight: 400
TTFWidth: 5
LineGap: 0
VLineGap: 0
Panose: 0 0 5 4 0 0 0 0 0 4
OS2TypoAscent: 1792
OS2TypoAOffset: 0
OS2TypoDescent: -256
OS2TypoDOffset: 0
OS2TypoLinegap: 0
OS2WinAscent: 1856
OS2WinAOffset: 0
OS2WinDescent: 192
OS2WinDOffset: 0
HheadAscent: 1792
HheadAOffset: 0
HheadDescent: -256
HheadDOffset: 0
OS2SubXSize: 1351
OS2SubYSize: 1351
OS2SubXOff: 0
OS2SubYOff: 220
OS2SupXSize: 1351
OS2SupYSize: 1351
OS2SupXOff: 0
OS2SupYOff: 565
OS2StrikeYSize: 154
OS2StrikeYPos: 640
OS2CapHeight: 1664
OS2XHeight: 1664
OS2Vendor: '    '
OS2CodePages: 00000001.00000000
OS2UnicodeRanges: 00000001.00000000.00000000.00000000
MarkAttachClasses: 1
DEI: 91125
ShortTable: maxp 16
  1
  0
  99
  44
  4
  0
  0
  0
  0
  0
  0
  0
  0
  0
  0
  0
EndShort
LangName: 1033 "" "" "Modern" "" "" "Version 1.000"
Encoding: UnicodeFull
UnicodeInterp: none
NameList: AGL For New Fonts
DisplaySize: -96
AntiAlias: 1
FitToEm: 0
WinInfo: 9441 9 8
BeginPrivate: 0
EndPrivate
BeginChars: 1114116 212

StartChar: .notdef
Encoding: 1114112 -1 0
Width: 2048
Flags: W
LayerCount: 2
Fore
SplineSet
190 0 m 1,0,-1
 190 1664 l 1,1,-1
 1856 1664 l 1,2,-1
 1856 0 l 1,3,-1
 190 0 l 1,0,-1
352 160 m 1,4,-1
 1696 160 l 1,5,-1
 1696 1504 l 1,6,-1
 352 1504 l 1,7,-1
 352 160 l 1,4,-1
352 1504 m 1,8,-1
 912 832 l 1,9,-1
 352 160 l 1,10,-1
 560 160 l 1,11,-1
 1024 720 l 1,12,-1
 1488 160 l 1,13,-1
 1696 160 l 1,14,-1
 1136 832 l 1,15,-1
 1696 1504 l 1,16,-1
 1488 1504 l 1,17,-1
 1024 944 l 1,18,-1
 560 1504 l 1,19,-1
 352 1504 l 1,8,-1
EndSplineSet
Validated: 5
EndChar

StartChar: A
Encoding: 65 65 4
Width: 2048
Flags: W
LayerCount: 2
Fore
SplineSet
192 0 m 1,0,-1
 192 960 l 2,1,2
 192 1664 192 1664 896 1664 c 1,3,4
 1047 1668 1047 1668 1152 1664 c 1,5,6
 1856 1664 1856 1664 1856 960 c 0,7,8
 1856 768 1856 768 1856 0 c 1,9,-1
 1600 0 l 1,10,-1
 1600 704 l 1,11,-1
 448 704 l 1,12,-1
 448 0 l 1,13,-1
 192 0 l 1,0,-1
448 960 m 2,14,-1
 1600 960 l 1,15,-1
 1602 991 l 1,16,17
 1600 1408 1600 1408 1184 1409 c 0,18,19
 1124 1409 1124 1409 873 1410 c 0,20,21
 448 1408 448 1408 447 992 c 0,22,23
 449 961 449 961 448 960 c 2,14,-1
EndSplineSet
Validated: 33
EndChar

StartChar: B
Encoding: 66 66 5
Width: 2048
Flags: W
LayerCount: 2
Fore
SplineSet
192 0 m 1,0,-1
 192 1664 l 1,1,-1
 1376 1664 l 2,2,3
 1856 1664 1856 1664 1856 1216 c 0,4,5
 1856 832 1856 832 1536 832 c 1,6,7
 1856 832 1856 832 1856 416 c 128,-1,8
 1856 0 1856 0 1376 0 c 2,9,-1
 192 0 l 1,0,-1
448 1408 m 1,10,-1
 448 960 l 1,11,-1
 1376 960 l 2,12,13
 1600 960 1600 960 1600 1184 c 128,-1,14
 1600 1408 1600 1408 1408 1408 c 0,15,16
 896 1408 896 1408 448 1408 c 1,10,-1
448 704 m 1,17,-1
 448 256 l 1,18,-1
 1408 256 l 2,19,20
 1600 256 1600 256 1600 480 c 128,-1,21
 1600 704 1600 704 1376 704 c 0,22,23
 896 704 896 704 448 704 c 1,17,-1
EndSplineSet
Validated: 1
EndChar

StartChar: C
Encoding: 67 67 6
Width: 2048
Flags: W
LayerCount: 2
Fore
SplineSet
1856 1664 m 1,0,-1
 896 1664 l 2,1,2
 192 1663 192 1663 192 960 c 0,3,4
 192 864 192 864 192 704 c 0,5,6
 193 0 193 0 896 0 c 0,7,8
 1344 0 1344 0 1856 0 c 1,9,-1
 1856 256 l 1,10,-1
 864 256 l 2,11,12
 455 257 455 257 448 672 c 0,13,14
 448 800 448 800 448 992 c 0,15,16
 451 1418 451 1418 864 1408 c 1,17,18
 1248 1408 1248 1408 1856 1408 c 1,19,-1
 1856 1664 l 1,0,-1
EndSplineSet
Validated: 41
EndChar

StartChar: a
Encoding: 97 97 7
Width: 2048
Flags: W
LayerCount: 2
Fore
SplineSet
288 96 m 1,0,-1
 288 960 l 2,1,2
 288 1568 288 1568 896 1568 c 2,3,4
 896 1568 896 1568 1152 1568 c 0,5,6
 1760 1568 1760 1568 1760 960 c 2,7,8
 1760 960 1760 960 1760 96 c 1,9,-1
 1600 96 l 1,10,-1
 1600 752 l 1,11,-1
 448 752 l 1,12,-1
 448 96 l 1,13,-1
 288 96 l 1,0,-1
448 912 m 1,14,-1
 1600 912 l 1,15,-1
 1602 991 l 1,16,17
 1600 1408 1600 1408 1184 1409 c 0,18,19
 1024 1408 1024 1408 873 1410 c 0,20,21
 448 1408 448 1408 447 992 c 1,22,23
 448 992 448 992 448 912 c 1,14,-1
EndSplineSet
Validated: 33
EndChar

StartChar: b
Encoding: 98 98 8
Width: 2048
Flags: W
LayerCount: 2
Fore
SplineSet
288 96 m 1,0,-1
 288 1568 l 1,1,-1
 1376 1568 l 2,2,3
 1760 1568 1760 1568 1760 1184 c 0,4,5
 1760 832 1760 832 1472 832 c 1,6,7
 1760 832 1760 832 1760 464 c 128,-1,8
 1760 96 1760 96 1376 96 c 2,9,-1
 288 96 l 1,0,-1
448 1408 m 1,10,-1
 448 912 l 1,11,-1
 1376 912 l 2,12,13
 1600 912 1600 912 1600 1160 c 128,-1,14
 1600 1408 1600 1408 1408 1408 c 0,15,16
 896 1408 896 1408 448 1408 c 1,10,-1
448 752 m 1,17,-1
 448 256 l 1,18,-1
 1408 256 l 2,19,20
 1600 256 1600 256 1600 504 c 128,-1,21
 1600 752 1600 752 1376 752 c 0,22,23
 896 752 896 752 448 752 c 1,17,-1
EndSplineSet
Validated: 1
EndChar

StartChar: O
Encoding: 79 79 9
Width: 2048
Flags: W
LayerCount: 2
Fore
SplineSet
192 960 m 0,0,1
 192 1664 192 1664 896 1664 c 0,2,3
 1024 1664 1024 1664 1152 1664 c 0,4,5
 1856 1664 1856 1664 1856 960 c 0,6,7
 1856 832 1856 832 1856 704 c 0,8,9
 1856 0 1856 0 1152 0 c 0,10,11
 1013 0 1013 0 896 0 c 0,12,13
 192 0 192 0 192 704 c 0,14,15
 192 864 192 864 192 960 c 0,0,1
448 992 m 0,16,17
 448 832 448 832 447 671 c 0,18,19
 448 256 448 256 858 256 c 0,20,21
 1024 256 1024 256 1184 256 c 0,22,23
 1600 256 1600 256 1600 672 c 0,24,25
 1600 800 1600 800 1602 996 c 0,26,27
 1600 1408 1600 1408 1184 1408 c 0,28,29
 1056 1408 1056 1408 864 1408 c 0,30,31
 448 1408 448 1408 448 992 c 0,16,17
EndSplineSet
Validated: 1
EndChar

StartChar: o
Encoding: 111 111 11
Width: 2048
Flags: W
LayerCount: 2
Fore
SplineSet
288 960 m 0,0,1
 288 1568 288 1568 896 1568 c 0,2,3
 1024 1568 1024 1568 1152 1568 c 0,4,5
 1760 1568 1760 1568 1760 960 c 0,6,7
 1760 832 1760 832 1760 704 c 0,8,9
 1760 96 1760 96 1152 96 c 0,10,11
 1013 96 1013 96 896 96 c 0,12,13
 288 96 288 96 288 704 c 0,14,15
 288 864 288 864 288 960 c 0,0,1
448 992 m 0,16,17
 448 832 448 832 447 671 c 0,18,19
 448 256 448 256 858 256 c 0,20,21
 1024 256 1024 256 1184 256 c 0,22,23
 1600 256 1600 256 1600 672 c 0,24,25
 1600 800 1600 800 1602 996 c 0,26,27
 1600 1408 1600 1408 1184 1408 c 0,28,29
 1056 1408 1056 1408 864 1408 c 0,30,31
 448 1408 448 1408 448 992 c 0,16,17
EndSplineSet
Validated: 1
EndChar

StartChar: D
Encoding: 68 68 12
Width: 2048
Flags: W
LayerCount: 2
Fore
SplineSet
192 0 m 1,0,-1
 192 1664 l 1,1,-1
 1088 1664 l 2,2,3
 1856 1664 1856 1664 1856 832 c 256,4,5
 1856 0 1856 0 1088 0 c 0,6,7
 704 0 704 0 192 0 c 1,0,-1
448 1408 m 1,8,-1
 448 256 l 1,9,-1
 1184 256 l 2,10,11
 1600 256 1600 256 1600 832 c 128,-1,12
 1600 1408 1600 1408 1184 1408 c 0,13,14
 704 1408 704 1408 448 1408 c 1,8,-1
EndSplineSet
Validated: 1
EndChar

StartChar: F
Encoding: 70 70 13
Width: 2048
Flags: W
LayerCount: 2
Fore
SplineSet
192 0 m 1,0,-1
 192 1664 l 1,1,-1
 1856 1664 l 1,2,-1
 1856 1408 l 1,3,-1
 448 1408 l 1,4,-1
 448 960 l 1,5,-1
 1600 960 l 1,6,-1
 1600 704 l 1,7,-1
 448 704 l 1,8,-1
 448 0 l 1,9,-1
 192 0 l 1,0,-1
EndSplineSet
Validated: 1
EndChar

StartChar: E
Encoding: 69 69 14
Width: 2048
Flags: W
LayerCount: 2
Fore
SplineSet
1856 1664 m 1,0,-1
 896 1664 l 2,1,2
 192 1663 192 1663 192 960 c 0,3,4
 192 864 192 864 192 704 c 0,5,6
 193 0 193 0 896 0 c 0,7,8
 1344 0 1344 0 1856 0 c 1,9,-1
 1856 256 l 1,10,-1
 864 256 l 1,11,12
 455 289 455 289 448 704 c 1,13,14
 1344 704 1344 704 1600 704 c 1,15,16
 1600 832 1600 832 1600 960 c 1,17,18
 1152 960 1152 960 448 960 c 1,19,20
 451 1386 451 1386 864 1408 c 1,21,22
 1248 1408 1248 1408 1856 1408 c 1,23,-1
 1856 1664 l 1,0,-1
EndSplineSet
Validated: 9
EndChar

StartChar: G
Encoding: 71 71 15
Width: 2048
Flags: W
LayerCount: 2
Fore
SplineSet
1856 1665 m 1,0,-1
 896 1665 l 2,1,2
 192 1664 192 1664 192 961 c 0,3,4
 192 865 192 865 192 705 c 0,5,6
 193 1 193 1 896 1 c 0,7,8
 1344 1 1344 1 1856 1 c 1,9,-1
 1856 961 l 1,10,-1
 1088 961 l 1,11,-1
 1088 705 l 1,12,-1
 1600 705 l 1,13,-1
 1600 257 l 1,14,-1
 864 257 l 2,15,16
 455 258 455 258 448 673 c 0,17,18
 448 801 448 801 448 993 c 0,19,20
 451 1419 451 1419 864 1409 c 1,21,22
 1248 1409 1248 1409 1856 1409 c 1,23,-1
 1856 1665 l 1,0,-1
EndSplineSet
Validated: 41
EndChar

StartChar: H
Encoding: 72 72 16
Width: 2048
Flags: W
LayerCount: 2
Fore
SplineSet
192 0 m 1,0,-1
 192 1664 l 1,1,-1
 448 1664 l 1,2,-1
 448 960 l 1,3,-1
 1600 960 l 1,4,-1
 1600 1664 l 1,5,-1
 1856 1664 l 1,6,-1
 1856 0 l 1,7,-1
 1600 0 l 1,8,-1
 1600 704 l 1,9,-1
 448 704 l 1,10,-1
 448 0 l 1,11,-1
 192 0 l 1,0,-1
EndSplineSet
Validated: 1
EndChar

StartChar: I
Encoding: 73 73 17
Width: 2048
Flags: W
LayerCount: 2
Fore
SplineSet
192 0 m 1,0,-1
 192 256 l 1,1,-1
 896 256 l 1,2,-1
 896 1408 l 1,3,-1
 192 1408 l 1,4,-1
 192 1664 l 1,5,-1
 1856 1664 l 1,6,-1
 1856 1408 l 1,7,-1
 1152 1408 l 1,8,-1
 1152 256 l 1,9,-1
 1856 256 l 1,10,-1
 1856 0 l 1,11,-1
 192 0 l 1,0,-1
EndSplineSet
Validated: 1
EndChar

StartChar: J
Encoding: 74 74 18
Width: 2048
Flags: W
LayerCount: 2
Fore
SplineSet
192 0 m 1,0,-1
 1152 0 l 2,1,2
 1856 0 1856 0 1856 704 c 0,3,4
 1856 1024 1856 1024 1856 1664 c 1,5,-1
 1600 1664 l 1,6,7
 1600 1152 1600 1152 1600 672 c 0,8,9
 1600 256 1600 256 1184 256 c 2,10,-1
 192 256 l 1,11,-1
 192 0 l 1,0,-1
EndSplineSet
Validated: 9
EndChar

StartChar: K
Encoding: 75 75 19
Width: 2048
Flags: W
LayerCount: 2
Fore
SplineSet
192 0 m 1,0,-1
 192 1664 l 1,1,-1
 448 1664 l 1,2,-1
 448 960 l 1,3,-1
 1424 1664 l 1,4,-1
 1856 1664 l 1,5,-1
 720 832 l 1,6,-1
 1856 0 l 1,7,-1
 1424 0 l 1,8,-1
 448 704 l 1,9,-1
 448 0 l 1,10,-1
 192 0 l 1,0,-1
EndSplineSet
Validated: 1
EndChar

StartChar: L
Encoding: 76 76 20
Width: 2048
Flags: W
LayerCount: 2
Fore
SplineSet
192 0 m 1,0,-1
 192 1664 l 1,1,-1
 448 1664 l 1,2,-1
 448 256 l 1,3,-1
 1856 256 l 1,4,-1
 1856 0 l 1,5,-1
 192 0 l 1,0,-1
EndSplineSet
Validated: 1
EndChar

StartChar: M
Encoding: 77 77 21
Width: 2048
Flags: W
LayerCount: 2
Fore
SplineSet
192 0 m 1,0,-1
 192 1664 l 1,1,-1
 544 1664 l 1,2,-1
 1024 896 l 1,3,-1
 1504 1664 l 1,4,-1
 1856 1664 l 1,5,-1
 1856 0 l 1,6,-1
 1600 0 l 1,7,8
 1600 576 1600 576 1600 1344 c 1,9,10
 1408 1024 1408 1024 1216 704 c 1,11,-1
 832 704 l 1,12,-1
 449 1340 l 1,13,-1
 448 0 l 1,14,-1
 192 0 l 1,0,-1
EndSplineSet
Validated: 1
EndChar

StartChar: N
Encoding: 78 78 22
Width: 2048
Flags: W
LayerCount: 2
Fore
SplineSet
192 0 m 1,0,-1
 192 1664 l 1,1,-1
 512 1664 l 1,2,-1
 1600 320 l 1,3,-1
 1600 1664 l 1,4,-1
 1856 1664 l 1,5,-1
 1856 0 l 1,6,-1
 1536 0 l 1,7,-1
 447 1343 l 1,8,-1
 448 0 l 1,9,-1
 192 0 l 1,0,-1
EndSplineSet
Validated: 1
EndChar

StartChar: P
Encoding: 80 80 23
Width: 2048
Flags: W
LayerCount: 2
Fore
SplineSet
192 0 m 1,0,-1
 192 1664 l 1,1,-1
 1408 1664 l 2,2,3
 1856 1664 1856 1664 1856 1184 c 128,-1,4
 1856 704 1856 704 1408 704 c 0,5,6
 1280 704 1280 704 448 704 c 1,7,8
 448 576 448 576 448 416 c 128,-1,9
 448 256 448 256 448 0 c 1,10,11
 320 0 320 0 192 0 c 1,0,-1
448 1408 m 1,12,-1
 448 960 l 1,13,-1
 1408 960 l 2,14,15
 1600 960 1600 960 1600 1184 c 128,-1,16
 1600 1408 1600 1408 1408 1408 c 0,17,18
 896 1408 896 1408 448 1408 c 1,12,-1
EndSplineSet
Validated: 1
EndChar

StartChar: Q
Encoding: 81 81 24
Width: 2048
Flags: W
LayerCount: 2
Fore
SplineSet
192 960 m 0,0,1
 192 1664 192 1664 896 1664 c 0,2,3
 1024 1664 1024 1664 1152 1664 c 0,4,5
 1856 1664 1856 1664 1856 960 c 0,6,7
 1856 832 1856 832 1856 704 c 1,8,-1
 1808 368 l 1,9,-1
 1760 272 l 1,10,-1
 1856 176 l 1,11,12
 1776 96 1776 96 1680 0 c 1,13,-1
 1584 96 l 1,14,-1
 1520 64 l 1,15,-1
 1152 0 l 1,16,17
 1013 0 1013 0 896 0 c 0,18,19
 192 0 192 0 192 704 c 0,20,21
 192 864 192 864 192 960 c 0,0,1
448 992 m 0,22,23
 448 832 448 832 447 671 c 0,24,25
 448 256 448 256 858 256 c 0,26,27
 1024 256 1024 256 1184 256 c 1,28,-1
 1344 288 l 1,29,-1
 1376 304 l 1,30,-1
 1216 464 l 1,31,32
 1328 576 1328 576 1392 640 c 1,33,-1
 1552 480 l 1,34,-1
 1584 544 l 1,35,-1
 1600 672 l 1,36,37
 1600 800 1600 800 1602 996 c 0,38,39
 1600 1408 1600 1408 1184 1408 c 0,40,41
 1056 1408 1056 1408 864 1408 c 0,42,43
 448 1408 448 1408 448 992 c 0,22,23
EndSplineSet
Validated: 1
EndChar

StartChar: R
Encoding: 82 82 25
Width: 2048
Flags: W
LayerCount: 2
Fore
SplineSet
192 0 m 1,0,-1
 192 1664 l 1,1,-1
 1408 1664 l 2,2,3
 1856 1664 1856 1664 1856 1216 c 0,4,5
 1856 704 1856 704 1408 704 c 0,6,7
 1280 704 1280 704 1088 704 c 1,8,-1
 1856 0 l 1,9,-1
 1472 0 l 1,10,-1
 704 704 l 1,11,-1
 448 704 l 1,12,13
 448 576 448 576 448 416 c 128,-1,14
 448 256 448 256 448 0 c 1,15,16
 320 0 320 0 192 0 c 1,0,-1
448 1408 m 1,17,-1
 448 960 l 1,18,-1
 1408 960 l 2,19,20
 1600 960 1600 960 1600 1184 c 128,-1,21
 1600 1408 1600 1408 1408 1408 c 0,22,23
 896 1408 896 1408 448 1408 c 1,17,-1
EndSplineSet
Validated: 1
EndChar

StartChar: S
Encoding: 83 83 26
Width: 2048
Flags: W
LayerCount: 2
Fore
SplineSet
1856 1408 m 1,0,-1
 640 1408 l 2,1,2
 448 1408 448 1408 448 1184 c 128,-1,3
 448 960 448 960 640 960 c 2,4,-1
 1408 960 l 2,5,6
 1856 960 1856 960 1856 480 c 128,-1,7
 1856 0 1856 0 1408 0 c 2,8,-1
 192 0 l 1,9,-1
 192 256 l 1,10,-1
 1408 256 l 2,11,12
 1600 256 1600 256 1600 480 c 128,-1,13
 1600 704 1600 704 1408 704 c 2,14,-1
 640 704 l 2,15,16
 192 704 192 704 192 1184 c 128,-1,17
 192 1664 192 1664 640 1664 c 2,18,-1
 1856 1664 l 1,19,-1
 1856 1408 l 1,0,-1
EndSplineSet
Validated: 1
EndChar

StartChar: T
Encoding: 84 84 27
Width: 2048
Flags: W
LayerCount: 2
Fore
SplineSet
192 1664 m 1,0,-1
 1856 1664 l 1,1,-1
 1856 1408 l 1,2,-1
 1152 1408 l 1,3,-1
 1152 0 l 1,4,-1
 896 0 l 1,5,-1
 896 1408 l 1,6,-1
 192 1408 l 1,7,-1
 192 1664 l 1,0,-1
EndSplineSet
Validated: 1
EndChar

StartChar: U
Encoding: 85 85 28
Width: 2048
Flags: W
LayerCount: 2
Fore
SplineSet
192 1664 m 1,0,-1
 192 672 l 2,1,2
 192 0 192 0 1024 0 c 256,3,4
 1856 0 1856 0 1856 672 c 2,5,-1
 1856 1664 l 1,6,-1
 1600 1664 l 1,7,-1
 1600 640 l 2,8,9
 1600 256 1600 256 1024 256 c 256,10,11
 448 256 448 256 448 640 c 2,12,-1
 448 1664 l 1,13,-1
 192 1664 l 1,0,-1
EndSplineSet
Validated: 9
EndChar

StartChar: V
Encoding: 86 86 29
Width: 2048
Flags: W
LayerCount: 2
Fore
SplineSet
192 1664 m 1,0,1
 192 1664 192 1664 832 0 c 1,2,-1
 1216 0 l 1,3,-1
 1856 1664 l 1,4,-1
 1584 1664 l 1,5,-1
 1024 224 l 1,6,7
 1024 224 1024 224 464 1664 c 1,8,9
 352 1664 352 1664 192 1664 c 1,0,1
EndSplineSet
Validated: 9
EndChar

StartChar: W
Encoding: 87 87 30
Width: 2048
Flags: W
LayerCount: 2
Fore
SplineSet
192 1664 m 1,0,-1
 192 0 l 1,1,-1
 544 0 l 1,2,3
 1024 768 1024 768 1024 768 c 1,4,-1
 1504 0 l 1,5,-1
 1856 0 l 1,6,-1
 1856 1664 l 1,7,-1
 1600 1664 l 1,8,-1
 1600 320 l 1,9,-1
 1216 960 l 1,10,-1
 832 960 l 1,11,-1
 448 320 l 1,12,-1
 448 1664 l 1,13,-1
 192 1664 l 1,0,-1
EndSplineSet
Validated: 9
EndChar

StartChar: X
Encoding: 88 88 31
Width: 2048
Flags: W
LayerCount: 2
Fore
SplineSet
192 1664 m 1,0,-1
 832 832 l 1,1,-1
 192 0 l 1,2,-1
 512 0 l 1,3,-1
 1024 640 l 1,4,-1
 1536 0 l 1,5,-1
 1856 0 l 1,6,-1
 1216 832 l 1,7,-1
 1856 1664 l 1,8,-1
 1536 1664 l 1,9,-1
 1024 1024 l 1,10,-1
 512 1664 l 1,11,-1
 192 1664 l 1,0,-1
EndSplineSet
Validated: 9
EndChar

StartChar: Y
Encoding: 89 89 32
Width: 2048
Flags: W
LayerCount: 2
Fore
SplineSet
192 1664 m 1,0,-1
 896 896 l 1,1,-1
 896 0 l 1,2,-1
 1152 0 l 1,3,-1
 1152 896 l 1,4,-1
 1856 1664 l 1,5,-1
 1504 1664 l 1,6,-1
 1024 1136 l 1,7,-1
 544 1664 l 1,8,-1
 192 1664 l 1,0,-1
EndSplineSet
Validated: 9
EndChar

StartChar: Z
Encoding: 90 90 33
Width: 2048
Flags: W
LayerCount: 2
Fore
SplineSet
192 1408 m 1,0,-1
 192 1664 l 1,1,-1
 1856 1664 l 1,2,-1
 1856 1344 l 1,3,-1
 512 256 l 1,4,-1
 1856 256 l 1,5,-1
 1856 0 l 1,6,-1
 192 0 l 1,7,-1
 192 320 l 1,8,-1
 1536 1408 l 1,9,-1
 192 1408 l 1,0,-1
EndSplineSet
Validated: 1
EndChar

StartChar: c
Encoding: 99 99 34
Width: 2048
Flags: W
LayerCount: 2
Fore
SplineSet
1760 1568 m 1,0,-1
 896 1568 l 2,1,2
 288 1568 288 1568 288 960 c 0,3,4
 288 864 288 864 288 704 c 0,5,6
 288 96 288 96 896 96 c 0,7,8
 1344 96 1344 96 1760 96 c 1,9,-1
 1760 256 l 1,10,-1
 864 256 l 2,11,12
 455 257 455 257 448 672 c 0,13,14
 448 800 448 800 448 992 c 0,15,16
 451 1418 451 1418 864 1408 c 1,17,18
 1248 1408 1248 1408 1760 1408 c 1,19,-1
 1760 1568 l 1,0,-1
EndSplineSet
Validated: 41
EndChar

StartChar: d
Encoding: 100 100 35
Width: 2048
Flags: W
LayerCount: 2
Fore
SplineSet
288 96 m 1,0,-1
 288 1568 l 1,1,-1
 1088 1568 l 2,2,3
 1760 1568 1760 1568 1760 832 c 256,4,5
 1760 96 1760 96 1088 96 c 0,6,7
 704 96 704 96 288 96 c 1,0,-1
448 1408 m 1,8,-1
 448 256 l 1,9,-1
 1184 256 l 2,10,11
 1600 256 1600 256 1600 832 c 128,-1,12
 1600 1408 1600 1408 1184 1408 c 0,13,14
 704 1408 704 1408 448 1408 c 1,8,-1
EndSplineSet
Validated: 1
EndChar

StartChar: e
Encoding: 101 101 36
Width: 2048
Flags: W
LayerCount: 2
Fore
SplineSet
1760 1568 m 1,0,-1
 896 1568 l 2,1,2
 288 1568 288 1568 288 960 c 0,3,4
 288 864 288 864 288 704 c 0,5,6
 288 96 288 96 896 96 c 0,7,8
 1344 96 1344 96 1760 96 c 1,9,-1
 1760 256 l 1,10,-1
 864 256 l 1,11,12
 455 289 455 289 448 752 c 1,13,14
 1344 752 1344 752 1504 752 c 1,15,16
 1504 816 1504 816 1504 912 c 1,17,18
 1152 912 1152 912 448 912 c 1,19,20
 451 1386 451 1386 864 1408 c 1,21,22
 1248 1408 1248 1408 1760 1408 c 1,23,-1
 1760 1568 l 1,0,-1
EndSplineSet
Validated: 9
EndChar

StartChar: f
Encoding: 102 102 37
Width: 2048
Flags: W
LayerCount: 2
Fore
SplineSet
288 96 m 1,0,-1
 288 1568 l 1,1,-1
 1760 1568 l 1,2,-1
 1760 1408 l 1,3,-1
 448 1408 l 1,4,-1
 448 912 l 1,5,-1
 1504 912 l 1,6,-1
 1504 752 l 1,7,-1
 448 752 l 1,8,-1
 448 96 l 1,9,-1
 288 96 l 1,0,-1
EndSplineSet
Validated: 1
EndChar

StartChar: g
Encoding: 103 103 38
Width: 2048
Flags: W
LayerCount: 2
Fore
SplineSet
1760 1568 m 1,0,-1
 896 1568 l 2,1,2
 288 1568 288 1568 288 960 c 0,3,4
 288 864 288 864 288 704 c 0,5,6
 288 96 288 96 896 96 c 0,7,8
 1344 96 1344 96 1760 96 c 1,9,-1
 1760 912 l 1,10,-1
 1088 912 l 1,11,-1
 1088 752 l 1,12,-1
 1600 752 l 1,13,-1
 1600 257 l 1,14,-1
 864 257 l 2,15,16
 455 258 455 258 448 673 c 0,17,18
 448 801 448 801 448 993 c 0,19,20
 451 1419 451 1419 864 1409 c 1,21,22
 1248 1409 1248 1409 1760 1408 c 1,23,-1
 1760 1568 l 1,0,-1
EndSplineSet
Validated: 41
EndChar

StartChar: h
Encoding: 104 104 39
Width: 2048
Flags: W
LayerCount: 2
Fore
SplineSet
288 96 m 1,0,-1
 288 1568 l 1,1,-1
 448 1568 l 1,2,-1
 448 912 l 1,3,-1
 1600 912 l 1,4,-1
 1600 1568 l 1,5,-1
 1760 1568 l 1,6,-1
 1760 96 l 1,7,-1
 1600 96 l 1,8,-1
 1600 752 l 1,9,-1
 448 752 l 1,10,-1
 448 96 l 1,11,-1
 288 96 l 1,0,-1
EndSplineSet
Validated: 1
EndChar

StartChar: i
Encoding: 105 105 40
Width: 2048
Flags: W
LayerCount: 2
Fore
SplineSet
288 96 m 1,0,-1
 288 256 l 1,1,-1
 944 256 l 1,2,-1
 944 1408 l 1,3,-1
 288 1408 l 1,4,-1
 288 1568 l 1,5,-1
 1760 1568 l 1,6,-1
 1760 1408 l 1,7,-1
 1104 1408 l 1,8,-1
 1104 256 l 1,9,-1
 1760 256 l 1,10,-1
 1760 96 l 1,11,-1
 288 96 l 1,0,-1
EndSplineSet
Validated: 1
EndChar

StartChar: j
Encoding: 106 106 41
Width: 2048
Flags: W
LayerCount: 2
Fore
SplineSet
288 96 m 1,0,-1
 1152 96 l 2,1,2
 1760 96 1760 96 1760 704 c 0,3,4
 1760 1024 1760 1024 1760 1568 c 1,5,-1
 1600 1568 l 1,6,7
 1600 1152 1600 1152 1600 672 c 0,8,9
 1600 256 1600 256 1184 256 c 2,10,-1
 288 256 l 1,11,-1
 288 96 l 1,0,-1
EndSplineSet
Validated: 9
EndChar

StartChar: k
Encoding: 107 107 42
Width: 2048
Flags: W
LayerCount: 2
Fore
SplineSet
288 96 m 1,0,-1
 288 1568 l 1,1,-1
 448 1568 l 1,2,-1
 448 912 l 1,3,-1
 1456 1568 l 1,4,-1
 1760 1568 l 1,5,-1
 624 832 l 1,6,-1
 1760 96 l 1,7,-1
 1456 96 l 1,8,-1
 448 752 l 1,9,-1
 448 96 l 1,10,-1
 288 96 l 1,0,-1
EndSplineSet
Validated: 1
EndChar

StartChar: l
Encoding: 108 108 43
Width: 2048
Flags: W
LayerCount: 2
Fore
SplineSet
288 96 m 1,0,-1
 288 1568 l 1,1,-1
 448 1568 l 1,2,-1
 448 256 l 1,3,-1
 1760 256 l 1,4,-1
 1760 96 l 1,5,-1
 288 96 l 1,0,-1
EndSplineSet
Validated: 1
EndChar

StartChar: m
Encoding: 109 109 44
Width: 2048
Flags: W
LayerCount: 2
Fore
SplineSet
288 96 m 1,0,-1
 288 1568 l 1,1,-1
 496 1568 l 1,2,-1
 1024 864 l 1,3,-1
 1552 1568 l 1,4,-1
 1760 1568 l 1,5,-1
 1760 96 l 1,6,-1
 1600 96 l 1,7,8
 1600 576 1600 576 1600 1360 c 1,9,10
 1600 1360 1600 1360 1136 752 c 1,11,-1
 912 752 l 1,12,-1
 448 1360 l 1,13,-1
 448 96 l 1,14,-1
 288 96 l 1,0,-1
EndSplineSet
Validated: 1
EndChar

StartChar: n
Encoding: 110 110 45
Width: 2048
Flags: W
LayerCount: 2
Fore
SplineSet
288 96 m 1,0,-1
 288 1568 l 1,1,-1
 496 1568 l 1,2,-1
 1600 288 l 1,3,-1
 1600 1568 l 1,4,-1
 1760 1568 l 1,5,-1
 1760 96 l 1,6,-1
 1552 96 l 1,7,-1
 448 1376 l 1,8,-1
 448 96 l 1,9,-1
 288 96 l 1,0,-1
EndSplineSet
Validated: 1
EndChar

StartChar: z
Encoding: 122 122 46
Width: 2048
Flags: W
LayerCount: 2
Fore
SplineSet
288 1408 m 1,0,-1
 288 1568 l 1,1,-1
 1760 1568 l 1,2,-1
 1760 1360 l 1,3,-1
 480 256 l 1,4,-1
 1760 256 l 1,5,-1
 1760 96 l 1,6,-1
 288 96 l 1,7,-1
 288 304 l 1,8,-1
 1568 1408 l 1,9,-1
 288 1408 l 1,0,-1
EndSplineSet
Validated: 1
EndChar

StartChar: p
Encoding: 112 112 47
Width: 2048
Flags: W
LayerCount: 2
Fore
SplineSet
288 96 m 1,0,-1
 288 1568 l 1,1,-1
 1408 1568 l 2,2,3
 1760 1568 1760 1568 1760 1160 c 128,-1,4
 1760 752 1760 752 1408 752 c 0,5,6
 1280 752 1280 752 448 752 c 1,7,8
 448 576 448 576 448 416 c 128,-1,9
 448 256 448 256 448 96 c 1,10,11
 384 96 384 96 288 96 c 1,0,-1
448 1408 m 1,12,-1
 448 912 l 1,13,-1
 1408 912 l 2,14,15
 1600 912 1600 912 1600 1160 c 128,-1,16
 1600 1408 1600 1408 1408 1408 c 0,17,18
 896 1408 896 1408 448 1408 c 1,12,-1
EndSplineSet
Validated: 1
EndChar

StartChar: q
Encoding: 113 113 48
Width: 2048
Flags: W
LayerCount: 2
Fore
SplineSet
288 960 m 0,0,1
 288 1568 288 1568 896 1568 c 0,2,3
 1024 1568 1024 1568 1152 1568 c 0,4,5
 1760 1568 1760 1568 1760 960 c 0,6,7
 1760 832 1760 832 1760 592 c 1,8,-1
 1696 384 l 1,9,-1
 1648 320 l 1,10,-1
 1760 208 l 1,11,12
 1696 144 1696 144 1648 96 c 1,13,-1
 1536 208 l 1,14,-1
 1472 160 l 1,15,-1
 1248 96 l 1,16,17
 1013 96 1013 96 896 96 c 0,18,19
 288 96 288 96 288 704 c 0,20,21
 288 864 288 864 288 960 c 0,0,1
448 992 m 0,22,23
 448 832 448 832 447 671 c 0,24,25
 448 256 448 256 858 256 c 0,26,27
 1024 256 1024 256 1184 256 c 1,28,-1
 1344 288 l 1,29,-1
 1408 336 l 1,30,-1
 1248 496 l 1,31,32
 1328 576 1328 576 1360 608 c 1,33,-1
 1520 448 l 1,34,-1
 1584 544 l 1,35,-1
 1600 672 l 1,36,37
 1600 800 1600 800 1602 996 c 0,38,39
 1600 1408 1600 1408 1184 1408 c 0,40,41
 1056 1408 1056 1408 864 1408 c 0,42,43
 448 1408 448 1408 448 992 c 0,22,23
EndSplineSet
Validated: 1
EndChar

StartChar: r
Encoding: 114 114 49
Width: 2048
Flags: W
LayerCount: 2
Fore
SplineSet
288 96 m 1,0,-1
 288 1568 l 1,1,-1
 1408 1568 l 2,2,3
 1760 1568 1760 1568 1760 1168 c 0,4,5
 1760 752 1760 752 1408 752 c 0,6,7
 1280 752 1280 752 976 752 c 1,8,-1
 1760 96 l 1,9,-1
 1504 96 l 1,10,-1
 720 752 l 1,11,-1
 448 752 l 1,12,13
 448 576 448 576 448 416 c 128,-1,14
 448 256 448 256 448 96 c 1,15,16
 384 96 384 96 288 96 c 1,0,-1
448 1408 m 1,17,-1
 448 912 l 1,18,-1
 1408 912 l 2,19,20
 1600 912 1600 912 1600 1160 c 128,-1,21
 1600 1408 1600 1408 1408 1408 c 0,22,23
 896 1408 896 1408 448 1408 c 1,17,-1
EndSplineSet
Validated: 1
EndChar

StartChar: s
Encoding: 115 115 50
Width: 2048
Flags: W
LayerCount: 2
Fore
SplineSet
1760 1408 m 1,0,-1
 640 1408 l 2,1,2
 448 1408 448 1408 448 1160 c 128,-1,3
 448 912 448 912 640 912 c 2,4,-1
 1408 912 l 2,5,6
 1760 912 1760 912 1760 504 c 128,-1,7
 1760 96 1760 96 1408 96 c 2,8,-1
 288 96 l 1,9,-1
 288 256 l 1,10,-1
 1408 256 l 2,11,12
 1600 256 1600 256 1600 504 c 128,-1,13
 1600 752 1600 752 1408 752 c 2,14,-1
 640 752 l 2,15,16
 288 752 288 752 288 1160 c 128,-1,17
 288 1568 288 1568 640 1568 c 2,18,-1
 1760 1568 l 1,19,-1
 1760 1408 l 1,0,-1
EndSplineSet
Validated: 1
EndChar

StartChar: t
Encoding: 116 116 51
Width: 2048
Flags: W
LayerCount: 2
Fore
SplineSet
288 1568 m 1,0,-1
 1760 1568 l 1,1,-1
 1760 1408 l 1,2,-1
 1104 1408 l 1,3,-1
 1104 96 l 1,4,-1
 944 96 l 1,5,-1
 944 1408 l 1,6,-1
 288 1408 l 1,7,-1
 288 1568 l 1,0,-1
EndSplineSet
Validated: 1
EndChar

StartChar: u
Encoding: 117 117 52
Width: 2048
Flags: W
LayerCount: 2
Fore
SplineSet
288 1568 m 1,0,-1
 288 672 l 2,1,2
 288 96 288 96 1024 96 c 256,3,4
 1760 96 1760 96 1760 672 c 2,5,-1
 1760 1568 l 1,6,-1
 1600 1568 l 1,7,-1
 1600 640 l 2,8,9
 1600 256 1600 256 1024 256 c 256,10,11
 448 256 448 256 448 640 c 2,12,-1
 448 1568 l 1,13,-1
 288 1568 l 1,0,-1
EndSplineSet
Validated: 9
EndChar

StartChar: v
Encoding: 118 118 53
Width: 2048
Flags: W
LayerCount: 2
Fore
SplineSet
288 1568 m 1,0,1
 288 1568 288 1568 928 96 c 1,2,-1
 1120 96 l 1,3,-1
 1760 1568 l 1,4,-1
 1588 1568 l 1,5,-1
 1024 280 l 1,6,7
 1024 280 1024 280 460 1568 c 1,8,9
 352 1568 352 1568 288 1568 c 1,0,1
EndSplineSet
Validated: 9
EndChar

StartChar: w
Encoding: 119 119 54
Width: 2048
Flags: W
LayerCount: 2
Fore
SplineSet
288 1568 m 1,0,-1
 288 96 l 1,1,-1
 496 96 l 1,2,3
 1024 784 1024 784 1024 784 c 1,4,-1
 1552 96 l 1,5,-1
 1760 96 l 1,6,-1
 1760 1568 l 1,7,-1
 1600 1568 l 1,8,-1
 1600 304 l 1,9,-1
 1120 912 l 1,10,-1
 928 912 l 1,11,-1
 448 304 l 1,12,-1
 448 1568 l 1,13,-1
 288 1568 l 1,0,-1
EndSplineSet
Validated: 9
EndChar

StartChar: x
Encoding: 120 120 55
Width: 2048
Flags: W
LayerCount: 2
Fore
SplineSet
288 1568 m 1,0,-1
 912 832 l 1,1,-1
 288 96 l 1,2,-1
 496 96 l 1,3,-1
 1024 720 l 1,4,-1
 1552 96 l 1,5,-1
 1760 96 l 1,6,-1
 1136 832 l 1,7,-1
 1760 1568 l 1,8,-1
 1552 1568 l 1,9,-1
 1024 944 l 1,10,-1
 496 1568 l 1,11,-1
 288 1568 l 1,0,-1
EndSplineSet
Validated: 9
EndChar

StartChar: y
Encoding: 121 121 56
Width: 2048
Flags: W
LayerCount: 2
Fore
SplineSet
288 1568 m 1,0,-1
 944 928 l 1,1,-1
 944 96 l 1,2,-1
 1104 96 l 1,3,-1
 1104 928 l 1,4,-1
 1760 1568 l 1,5,-1
 1536 1568 l 1,6,-1
 1024 1072 l 1,7,-1
 512 1568 l 1,8,-1
 288 1568 l 1,0,-1
EndSplineSet
Validated: 9
EndChar

StartChar: zero
Encoding: 48 48 57
Width: 2048
Flags: W
LayerCount: 2
Fore
SplineSet
192 960 m 0,0,1
 192 1664 192 1664 896 1664 c 0,2,3
 1024 1664 1024 1664 1152 1664 c 0,4,5
 1856 1664 1856 1664 1856 960 c 0,6,7
 1856 832 1856 832 1856 704 c 0,8,9
 1856 0 1856 0 1152 0 c 0,10,11
 1013 0 1013 0 896 0 c 0,12,13
 192 0 192 0 192 704 c 0,14,15
 192 864 192 864 192 960 c 0,0,1
448 992 m 0,16,17
 448 832 448 832 447 671 c 0,18,19
 448 256 448 256 858 256 c 0,20,21
 1024 256 1024 256 1184 256 c 0,22,23
 1600 256 1600 256 1600 672 c 0,24,25
 1600 800 1600 800 1602 996 c 0,26,27
 1600 1408 1600 1408 1184 1408 c 0,28,29
 1056 1408 1056 1408 864 1408 c 0,30,31
 448 1408 448 1408 448 992 c 0,16,17
1408 1408 m 1,32,-1
 1600 1216 l 1,33,-1
 640 256 l 1,34,-1
 448 448 l 1,35,-1
 1408 1408 l 1,32,-1
EndSplineSet
Validated: 5
EndChar

StartChar: one
Encoding: 49 49 58
Width: 2048
Flags: W
LayerCount: 2
Fore
SplineSet
192 0 m 1,0,-1
 192 256 l 1,1,-1
 896 256 l 1,2,-1
 896 1344 l 1,3,-1
 576 1088 l 1,4,-1
 576 1408 l 1,5,-1
 896 1664 l 1,6,-1
 1152 1664 l 1,7,-1
 1152 1408 l 1,8,-1
 1152 256 l 1,9,-1
 1856 256 l 1,10,-1
 1856 0 l 1,11,-1
 192 0 l 1,0,-1
EndSplineSet
Validated: 1
EndChar

StartChar: two
Encoding: 50 50 59
Width: 2048
Flags: W
LayerCount: 2
Fore
SplineSet
384 1216 m 1,0,-1
 192 1408 l 1,1,2
 434 1664 434 1664 1024 1664 c 0,3,4
 1856 1664 1856 1664 1856 1088 c 0,5,6
 1856 736 1856 736 576 256 c 1,7,-1
 1856 256 l 1,8,-1
 1856 0 l 1,9,-1
 192 0 l 1,10,-1
 192 352 l 1,11,12
 1664 928 1664 928 1600 1168 c 128,-1,13
 1536 1408 1536 1408 1024 1408 c 0,14,15
 496 1408 496 1408 384 1216 c 1,0,-1
EndSplineSet
Validated: 33
EndChar

StartChar: three
Encoding: 51 51 60
Width: 2048
Flags: W
LayerCount: 2
Fore
SplineSet
192 0 m 1,0,-1
 192 256 l 1,1,-1
 448 704 l 1,2,-1
 448 960 l 1,3,-1
 192 1408 l 1,4,-1
 192 1664 l 1,5,-1
 1376 1664 l 2,6,7
 1856 1664 1856 1664 1856 1216 c 0,8,9
 1856 832 1856 832 1536 832 c 1,10,11
 1856 832 1856 832 1856 416 c 128,-1,12
 1856 0 1856 0 1376 0 c 2,13,-1
 192 0 l 1,0,-1
192 1408 m 1,14,-1
 448 960 l 1,15,-1
 1376 960 l 2,16,17
 1600 960 1600 960 1600 1184 c 128,-1,18
 1600 1408 1600 1408 1408 1408 c 0,19,20
 896 1408 896 1408 192 1408 c 1,14,-1
448 704 m 1,21,-1
 192 256 l 1,22,-1
 1408 256 l 2,23,24
 1600 256 1600 256 1600 480 c 128,-1,25
 1600 704 1600 704 1376 704 c 0,26,27
 896 704 896 704 448 704 c 1,21,-1
EndSplineSet
Validated: 5
EndChar

StartChar: four
Encoding: 52 52 61
Width: 2048
Flags: W
LayerCount: 2
Fore
SplineSet
1600 0 m 1,0,-1
 1600 512 l 1,1,-1
 1856 512 l 1,2,-1
 1856 768 l 1,3,-1
 1600 768 l 1,4,-1
 1600 1664 l 1,5,-1
 1280 1664 l 1,6,-1
 192 832 l 1,7,-1
 192 512 l 1,8,-1
 1344 512 l 1,9,-1
 1344 0 l 1,10,-1
 1600 0 l 1,0,-1
1344 768 m 1,11,-1
 512 768 l 1,12,-1
 1344 1344 l 1,13,-1
 1344 768 l 1,11,-1
EndSplineSet
Validated: 9
EndChar

StartChar: five
Encoding: 53 53 62
Width: 2048
Flags: W
LayerCount: 2
Fore
SplineSet
384 448 m 1,0,-1
 192 256 l 1,1,2
 434 0 434 0 1024 0 c 0,3,4
 1856 0 1856 0 1856 576 c 256,5,6
 1856 1152 1856 1152 448 1152 c 1,7,-1
 448 1408 l 1,8,-1
 1856 1408 l 1,9,-1
 1856 1664 l 1,10,-1
 192 1664 l 1,11,-1
 192 960 l 1,12,13
 1664 896 1664 896 1600 576 c 128,-1,14
 1536 256 1536 256 1024 256 c 0,15,16
 496 256 496 256 384 448 c 1,0,-1
EndSplineSet
Validated: 41
EndChar

StartChar: eight
Encoding: 56 56 63
Width: 2048
Flags: W
LayerCount: 2
Fore
SplineSet
672 0 m 2,0,1
 192 0 192 0 192 416 c 128,-1,2
 192 832 192 832 512 832 c 1,3,4
 192 832 192 832 192 1248 c 128,-1,5
 192 1664 192 1664 672 1664 c 2,6,-1
 1376 1664 l 2,7,8
 1856 1664 1856 1664 1856 1216 c 0,9,10
 1856 832 1856 832 1536 832 c 1,11,12
 1856 832 1856 832 1856 416 c 128,-1,13
 1856 0 1856 0 1376 0 c 2,14,-1
 672 0 l 2,0,1
640 1408 m 0,15,16
 448 1408 448 1408 448 1184 c 128,-1,17
 448 960 448 960 672 960 c 2,18,-1
 1376 960 l 2,19,20
 1600 960 1600 960 1600 1184 c 128,-1,21
 1600 1408 1600 1408 1408 1408 c 0,22,23
 896 1408 896 1408 640 1408 c 0,15,16
672 704 m 256,24,25
 448 704 448 704 448 480 c 128,-1,26
 448 256 448 256 640 256 c 2,27,-1
 1408 256 l 2,28,29
 1600 256 1600 256 1600 480 c 128,-1,30
 1600 704 1600 704 1376 704 c 0,31,32
 896 704 896 704 672 704 c 256,24,25
EndSplineSet
Validated: 1
EndChar

StartChar: seven
Encoding: 55 55 64
Width: 2048
Flags: W
LayerCount: 2
Fore
SplineSet
1856 1664 m 1,0,-1
 952 0 l 1,1,-1
 656 0 l 1,2,-1
 1424 1408 l 1,3,-1
 192 1408 l 1,4,-1
 192 1664 l 1,5,-1
 1856 1664 l 1,0,-1
EndSplineSet
Validated: 1
EndChar

StartChar: six
Encoding: 54 54 65
Width: 2048
Flags: W
LayerCount: 2
Fore
SplineSet
1344 1664 m 1,0,1
 192 1664 192 1664 192 832 c 128,-1,2
 192 0 192 0 640 0 c 2,3,-1
 1408 0 l 2,4,5
 1856 0 1856 0 1856 480 c 128,-1,6
 1856 960 1856 960 1408 960 c 0,7,8
 1280 960 1280 960 640 960 c 0,9,10
 416 960 416 960 488 1096 c 128,-1,11
 560 1232 560 1232 768 1320 c 128,-1,12
 976 1408 976 1408 1344 1408 c 1,13,14
 1344 1536 1344 1536 1344 1664 c 1,0,1
640 256 m 0,15,16
 544 256 544 256 480 480 c 128,-1,17
 416 704 416 704 640 704 c 2,18,-1
 1408 704 l 2,19,20
 1600 704 1600 704 1600 480 c 128,-1,21
 1600 256 1600 256 1408 256 c 0,22,23
 896 256 896 256 640 256 c 0,15,16
EndSplineSet
Validated: 41
EndChar

StartChar: nine
Encoding: 57 57 66
Width: 2048
Flags: W
LayerCount: 2
Fore
SplineSet
704 0 m 1,0,1
 1856 0 1856 0 1856 832 c 128,-1,2
 1856 1664 1856 1664 1408 1664 c 2,3,-1
 640 1664 l 2,4,5
 192 1664 192 1664 192 1184 c 128,-1,6
 192 704 192 704 640 704 c 0,7,8
 768 704 768 704 1408 704 c 0,9,10
 1632 704 1632 704 1560 568 c 128,-1,11
 1488 432 1488 432 1280 344 c 128,-1,12
 1072 256 1072 256 704 256 c 1,13,14
 704 128 704 128 704 0 c 1,0,1
1408 1408 m 0,15,16
 1504 1408 1504 1408 1568 1184 c 128,-1,17
 1632 960 1632 960 1408 960 c 2,18,-1
 640 960 l 2,19,20
 448 960 448 960 448 1184 c 128,-1,21
 448 1408 448 1408 640 1408 c 0,22,23
 1152 1408 1152 1408 1408 1408 c 0,15,16
EndSplineSet
Validated: 41
EndChar

StartChar: colon
Encoding: 58 58 67
Width: 2048
Flags: W
LayerCount: 2
Fore
SplineSet
832 1472 m 1,0,-1
 1216 1472 l 1,1,-1
 1216 1088 l 1,2,-1
 832 1088 l 1,3,-1
 832 1472 l 1,0,-1
832 576 m 1,4,-1
 1216 576 l 1,5,-1
 1216 192 l 1,6,-1
 832 192 l 1,7,-1
 832 576 l 1,4,-1
EndSplineSet
Validated: 1
EndChar

StartChar: semicolon
Encoding: 59 59 68
Width: 2048
Flags: W
LayerCount: 2
Fore
SplineSet
832 1472 m 1,0,-1
 1216 1472 l 1,1,-1
 1216 1088 l 1,2,-1
 832 1088 l 1,3,-1
 832 1472 l 1,0,-1
832 576 m 1,4,-1
 1216 576 l 1,5,-1
 1216 192 l 1,6,-1
 1024 -128 l 1,7,-1
 832 -128 l 1,8,-1
 1024 192 l 1,9,-1
 832 192 l 1,10,-1
 832 576 l 1,4,-1
EndSplineSet
Validated: 1
EndChar

StartChar: comma
Encoding: 44 44 69
Width: 2048
Flags: W
LayerCount: 2
Fore
SplineSet
832 576 m 1,0,-1
 1216 576 l 1,1,-1
 1216 192 l 1,2,-1
 1024 -128 l 1,3,-1
 832 -128 l 1,4,-1
 1024 192 l 1,5,-1
 832 192 l 1,6,-1
 832 576 l 1,0,-1
EndSplineSet
Validated: 1
EndChar

StartChar: period
Encoding: 46 46 70
Width: 2048
Flags: W
LayerCount: 2
Fore
SplineSet
832 576 m 1,0,-1
 1216 576 l 1,1,-1
 1216 192 l 1,2,-1
 832 192 l 1,3,-1
 832 576 l 1,0,-1
EndSplineSet
Validated: 1
EndChar

StartChar: hyphen
Encoding: 45 45 71
Width: 2048
Flags: W
LayerCount: 2
Fore
SplineSet
192 960 m 1,0,-1
 1856 960 l 1,1,2
 1856 669 1856 669 1856 704 c 1,3,4
 1855 704 1855 704 192 704 c 1,5,-1
 192 960 l 1,0,-1
EndSplineSet
Validated: 37
EndChar

StartChar: plus
Encoding: 43 43 72
Width: 2048
Flags: W
LayerCount: 2
Fore
SplineSet
192 960 m 1,0,-1
 894 960 l 1,1,2
 894 1178 894 1178 896 1664 c 1,3,4
 976 1663 976 1663 1152 1664 c 1,5,-1
 1150 962 l 1,6,-1
 1856 960 l 1,7,-1
 1856 704 l 1,8,-1
 1152 704 l 1,9,-1
 1152 0 l 1,10,-1
 896 0 l 1,11,-1
 896 704 l 1,12,-1
 192 704 l 1,13,-1
 192 960 l 1,0,-1
EndSplineSet
Validated: 33
EndChar

StartChar: slash
Encoding: 47 47 73
Width: 2048
Flags: W
LayerCount: 2
Fore
SplineSet
1632 1664 m 1,0,-1
 728 0 l 1,1,-1
 432 0 l 1,2,-1
 1336 1664 l 1,3,-1
 1632 1664 l 1,0,-1
EndSplineSet
Validated: 1
EndChar

StartChar: asterisk
Encoding: 42 42 74
Width: 2048
Flags: W
LayerCount: 2
Fore
SplineSet
192 960 m 1,0,-1
 704 960 l 1,1,-1
 384 1344 l 1,2,-1
 576 1536 l 1,3,-1
 1024 960 l 1,4,-1
 1472 1536 l 1,5,-1
 1664 1344 l 1,6,-1
 1344 960 l 1,7,-1
 1856 960 l 1,8,9
 1856 704 1856 704 1856 704 c 1,10,11
 1739 704 1739 704 1344 704 c 1,12,13
 1344 704 1344 704 1664 320 c 1,14,15
 1664 320 1664 320 1472 128 c 1,16,17
 1472 128 1472 128 1024 704 c 1,18,19
 1024 704 1024 704 576 128 c 1,20,21
 576 128 576 128 384 320 c 1,22,23
 704 704 704 704 704 704 c 1,24,25
 601 704 601 704 192 704 c 1,26,-1
 192 960 l 1,0,-1
EndSplineSet
Validated: 1
EndChar

StartChar: parenleft
Encoding: 40 40 75
Width: 2048
Flags: W
LayerCount: 2
Fore
SplineSet
1152 1792 m 1,0,-1
 1248 1536 l 1,1,2
 896 1536 896 1536 896 896 c 256,3,4
 896 256 896 256 1248 128 c 1,5,-1
 1152 -128 l 1,6,7
 640 128 640 128 640 896 c 256,8,9
 640 1664 640 1664 1152 1792 c 1,0,-1
EndSplineSet
Validated: 1
EndChar

StartChar: parenright
Encoding: 41 41 76
Width: 2048
Flags: W
LayerCount: 2
Fore
SplineSet
896 1792 m 1,0,-1
 800 1536 l 1,1,2
 1152 1536 1152 1536 1152 896 c 256,3,4
 1152 256 1152 256 800 128 c 1,5,-1
 896 -128 l 1,6,7
 1408 128 1408 128 1408 896 c 256,8,9
 1408 1664 1408 1664 896 1792 c 1,0,-1
EndSplineSet
Validated: 9
EndChar

StartChar: quotesingle
Encoding: 39 39 77
Width: 2048
Flags: W
LayerCount: 2
Fore
SplineSet
832 1664 m 1,0,-1
 1216 1664 l 1,1,-1
 1216 1280 l 1,2,-1
 1024 960 l 1,3,-1
 832 1280 l 1,4,-1
 832 1664 l 1,0,-1
EndSplineSet
Validated: 1
EndChar

StartChar: quotedbl
Encoding: 34 34 78
Width: 2048
Flags: W
LayerCount: 2
Fore
SplineSet
1152 1664 m 1,0,-1
 1536 1664 l 1,1,-1
 1536 1280 l 1,2,-1
 1344 960 l 1,3,-1
 1152 1280 l 1,4,-1
 1152 1664 l 1,0,-1
1152 1664 m 1,5,-1
 1536 1664 l 1,6,-1
 1536 1280 l 1,7,-1
 1344 960 l 1,8,-1
 1152 1280 l 1,9,-1
 1152 1664 l 1,5,-1
512 1664 m 1,10,-1
 896 1664 l 1,11,-1
 896 1280 l 1,12,-1
 704 960 l 1,13,-1
 512 1280 l 1,14,-1
 512 1664 l 1,10,-1
512 1664 m 1,15,-1
 896 1664 l 1,16,-1
 896 1280 l 1,17,-1
 704 960 l 1,18,-1
 512 1280 l 1,19,-1
 512 1664 l 1,15,-1
EndSplineSet
Validated: 5
EndChar

StartChar: exclam
Encoding: 33 33 79
Width: 2048
Flags: W
LayerCount: 2
Fore
SplineSet
896 1664 m 1,0,-1
 1152 1664 l 1,1,-1
 1152 512 l 1,2,-1
 896 512 l 1,3,-1
 896 1664 l 1,0,-1
896 256 m 1,4,-1
 1152 256 l 1,5,-1
 1152 0 l 1,6,-1
 896 0 l 1,7,-1
 896 256 l 1,4,-1
EndSplineSet
Validated: 1
EndChar

StartChar: numbersign
Encoding: 35 35 80
Width: 2048
Flags: W
LayerCount: 2
Fore
SplineSet
192 1280 m 1,0,-1
 576 1280 l 1,1,-1
 576 1664 l 1,2,-1
 832 1664 l 1,3,-1
 832 1280 l 1,4,-1
 1216 1280 l 1,5,-1
 1216 1664 l 1,6,-1
 1472 1664 l 1,7,-1
 1472 1280 l 1,8,-1
 1856 1280 l 1,9,-1
 1856 1024 l 1,10,-1
 1472 1024 l 1,11,-1
 1472 640 l 1,12,-1
 1856 640 l 1,13,-1
 1856 384 l 1,14,-1
 1472 384 l 1,15,-1
 1472 0 l 1,16,-1
 1216 0 l 1,17,-1
 1216 384 l 1,18,-1
 832 384 l 1,19,-1
 832 0 l 1,20,-1
 576 0 l 1,21,-1
 576 384 l 1,22,-1
 192 384 l 1,23,-1
 192 640 l 1,24,-1
 576 640 l 1,25,-1
 576 1024 l 1,26,-1
 192 1024 l 1,27,-1
 192 1280 l 1,0,-1
832 1024 m 1,28,-1
 832 640 l 1,29,-1
 1216 640 l 1,30,-1
 1216 1024 l 1,31,-1
 832 1024 l 1,28,-1
EndSplineSet
Validated: 1
EndChar

StartChar: dollar
Encoding: 36 36 81
Width: 2048
Flags: W
LayerCount: 2
Fore
SplineSet
1856 1280 m 1,0,-1
 640 1280 l 2,1,2
 448 1280 448 1280 448 1120 c 128,-1,3
 448 960 448 960 640 960 c 2,4,-1
 1408 960 l 2,5,6
 1856 960 1856 960 1856 544 c 128,-1,7
 1856 128 1856 128 1408 128 c 2,8,-1
 192 128 l 1,9,-1
 192 384 l 1,10,-1
 1408 384 l 2,11,12
 1600 384 1600 384 1600 544 c 128,-1,13
 1600 704 1600 704 1408 704 c 2,14,-1
 640 704 l 2,15,16
 192 704 192 704 192 1120 c 128,-1,17
 192 1536 192 1536 640 1536 c 2,18,-1
 1856 1536 l 1,19,-1
 1856 1280 l 1,0,-1
896 1664 m 1,20,-1
 1152 1664 l 1,21,-1
 1152 0 l 1,22,-1
 896 0 l 1,23,-1
 896 1664 l 1,20,-1
EndSplineSet
Validated: 5
EndChar

StartChar: percent
Encoding: 37 37 82
Width: 2048
Flags: W
LayerCount: 2
Fore
SplineSet
1632 1664 m 1,0,-1
 728 0 l 1,1,-1
 432 0 l 1,2,-1
 1336 1664 l 1,3,-1
 1632 1664 l 1,0,-1
384 1664 m 1,4,-1
 768 1664 l 1,5,-1
 768 1280 l 1,6,-1
 384 1280 l 1,7,-1
 384 1664 l 1,4,-1
1280 384 m 1,8,-1
 1664 384 l 1,9,-1
 1664 0 l 1,10,-1
 1280 0 l 1,11,-1
 1280 384 l 1,8,-1
EndSplineSet
Validated: 1
EndChar

StartChar: ampersand
Encoding: 38 38 83
Width: 2048
Flags: W
LayerCount: 2
Fore
SplineSet
672 0 m 2,0,1
 192 0 192 0 192 384 c 128,-1,2
 192 768 192 768 512 928 c 1,3,4
 320 1088 320 1088 320 1376 c 128,-1,5
 320 1664 320 1664 672 1664 c 2,6,-1
 896 1664 l 2,7,8
 1280 1664 1280 1664 1280 1216 c 1,9,10
 1216 960 1216 960 960 864 c 1,11,12
 1152 704 1152 704 1280 576 c 1,13,-1
 1664 960 l 1,14,-1
 1856 768 l 1,15,-1
 1472 384 l 1,16,-1
 1728 160 l 1,17,-1
 1536 0 l 1,18,-1
 1312 192 l 1,19,20
 1216 64 1216 64 960 0 c 1,21,-1
 672 0 l 2,0,1
768 1408 m 0,22,23
 576 1408 576 1408 576 1280 c 0,24,25
 576 1216 576 1216 640 1152 c 2,26,-1
 768 1024 l 1,27,-1
 960 1152 l 1,28,29
 1024 1184 1024 1184 1024 1296 c 128,-1,30
 1024 1408 1024 1408 896 1408 c 0,31,32
 832 1408 832 1408 768 1408 c 0,22,23
544 640 m 0,33,34
 448 544 448 544 448 400 c 128,-1,35
 448 256 448 256 672 256 c 2,36,-1
 896 256 l 1,37,38
 992 288 992 288 1088 384 c 1,39,40
 896 576 896 576 704 736 c 1,41,42
 608 704 608 704 544 640 c 0,33,34
EndSplineSet
Validated: 1
EndChar

StartChar: less
Encoding: 60 60 84
Width: 2048
Flags: W
LayerCount: 2
Fore
SplineSet
1856 1664 m 1,0,-1
 192 1024 l 1,1,-1
 192 640 l 1,2,-1
 1856 0 l 1,3,-1
 1856 272 l 1,4,-1
 416 832 l 1,5,-1
 1856 1392 l 1,6,-1
 1856 1664 l 1,0,-1
EndSplineSet
Validated: 9
EndChar

StartChar: greater
Encoding: 62 62 85
Width: 2048
Flags: W
LayerCount: 2
Fore
SplineSet
192 1664 m 1,0,-1
 1856 1024 l 1,1,-1
 1856 640 l 1,2,-1
 192 0 l 1,3,-1
 192 272 l 1,4,-1
 1632 832 l 1,5,-1
 192 1392 l 1,6,-1
 192 1664 l 1,0,-1
EndSplineSet
Validated: 1
EndChar

StartChar: equal
Encoding: 61 61 86
Width: 2048
Flags: W
LayerCount: 2
Fore
SplineSet
192 1344 m 1,0,-1
 1856 1344 l 1,1,2
 1856 1053 1856 1053 1856 1088 c 1,3,4
 1855 1088 1855 1088 192 1088 c 1,5,-1
 192 1344 l 1,0,-1
192 576 m 1,6,-1
 1856 576 l 1,7,8
 1856 285 1856 285 1856 320 c 1,9,10
 1855 320 1855 320 192 320 c 1,11,-1
 192 576 l 1,6,-1
EndSplineSet
Validated: 37
EndChar

StartChar: question
Encoding: 63 63 87
Width: 2048
Flags: W
LayerCount: 2
Fore
SplineSet
384 1216 m 1,0,-1
 192 1408 l 1,1,2
 434 1664 434 1664 1024 1664 c 0,3,4
 1856 1664 1856 1664 1856 1152 c 256,5,6
 1856 640 1856 640 1152 640 c 1,7,-1
 1152 512 l 1,8,-1
 896 512 l 1,9,-1
 896 896 l 1,10,11
 1600 896 1600 896 1600 1152 c 128,-1,12
 1600 1408 1600 1408 1024 1408 c 0,13,14
 496 1408 496 1408 384 1216 c 1,0,-1
896 256 m 1,15,-1
 1152 256 l 1,16,-1
 1152 0 l 1,17,-1
 896 0 l 1,18,-1
 896 256 l 1,15,-1
EndSplineSet
Validated: 1
EndChar

StartChar: at
Encoding: 64 64 88
Width: 2048
Flags: W
LayerCount: 2
Fore
SplineSet
1344 832 m 2,0,1
 1344 1152 1344 1152 1024 1151 c 0,2,3
 704 1152 704 1152 704 832 c 256,4,5
 704 512 704 512 1024 512 c 2,6,-1
 1856 512 l 1,7,8
 1856 1664 1856 1664 1024 1664 c 256,9,10
 192 1664 192 1664 192 896 c 0,11,12
 192 0 192 0 1024 0 c 2,13,-1
 1856 0 l 1,14,-1
 1856 256 l 1,15,-1
 1024 256 l 2,16,17
 448 256 448 256 448 832 c 256,18,19
 448 1408 448 1408 1024 1408 c 256,20,21
 1600 1408 1600 1408 1600 704 c 1,22,-1
 1344 704 l 1,23,-1
 1344 832 l 2,0,1
EndSplineSet
Validated: 41
EndChar

StartChar: bracketleft
Encoding: 91 91 89
Width: 2048
Flags: W
LayerCount: 2
Fore
SplineSet
1344 1792 m 1,0,-1
 704 1792 l 1,1,-1
 704 -128 l 1,2,-1
 1344 -128 l 1,3,-1
 1344 128 l 1,4,-1
 960 128 l 1,5,-1
 960 1536 l 1,6,-1
 1344 1536 l 1,7,-1
 1344 1792 l 1,0,-1
EndSplineSet
Validated: 9
EndChar

StartChar: bracketright
Encoding: 93 93 90
Width: 2048
Flags: W
LayerCount: 2
Fore
SplineSet
704 1792 m 1,0,-1
 1344 1792 l 1,1,-1
 1344 -128 l 1,2,-1
 704 -128 l 1,3,-1
 704 128 l 1,4,-1
 1088 128 l 1,5,-1
 1088 1536 l 1,6,-1
 704 1536 l 1,7,-1
 704 1792 l 1,0,-1
EndSplineSet
Validated: 1
EndChar

StartChar: backslash
Encoding: 92 92 91
Width: 2048
Flags: W
LayerCount: 2
Fore
SplineSet
432 1664 m 1,0,-1
 1336 0 l 1,1,-1
 1632 0 l 1,2,-1
 728 1664 l 1,3,-1
 432 1664 l 1,0,-1
EndSplineSet
Validated: 9
EndChar

StartChar: asciicircum
Encoding: 94 94 92
Width: 2048
Flags: W
LayerCount: 2
Fore
SplineSet
512 832 m 1,0,1
 512 832 512 832 832 1664 c 1,2,-1
 1216 1664 l 1,3,-1
 1536 832 l 1,4,-1
 1264 832 l 1,5,-1
 1024 1440 l 1,6,7
 1024 1440 1024 1440 784 832 c 1,8,9
 672 832 672 832 512 832 c 1,0,1
EndSplineSet
Validated: 1
EndChar

StartChar: underscore
Encoding: 95 95 93
Width: 2048
Flags: W
LayerCount: 2
Fore
SplineSet
192 256 m 1,0,-1
 1856 256 l 1,1,2
 1856 -35 1856 -35 1856 0 c 1,3,4
 1855 0 1855 0 192 0 c 1,5,-1
 192 256 l 1,0,-1
EndSplineSet
Validated: 37
EndChar

StartChar: grave
Encoding: 96 96 94
Width: 2048
Flags: W
LayerCount: 2
Fore
SplineSet
1216 1664 m 1,0,-1
 832 1664 l 1,1,-1
 832 1280 l 1,2,-1
 1024 1280 l 1,3,-1
 1216 960 l 1,4,-1
 1408 960 l 1,5,-1
 1216 1280 l 1,6,-1
 1216 1664 l 1,0,-1
EndSplineSet
Validated: 9
EndChar

StartChar: bar
Encoding: 124 124 95
Width: 2048
Flags: W
LayerCount: 2
Fore
SplineSet
896 1792 m 1,0,-1
 1152 1792 l 1,1,-1
 1152 -128 l 1,2,-1
 896 -128 l 1,3,-1
 896 1792 l 1,0,-1
EndSplineSet
Validated: 1
EndChar

StartChar: braceleft
Encoding: 123 123 96
Width: 2048
Flags: W
LayerCount: 2
Fore
SplineSet
1344 1792 m 1,0,-1
 1344 1536 l 1,1,2
 1024 1536 1024 1536 1024 1344 c 0,3,4
 1024 832 1024 832 768 832 c 1,5,6
 1024 832 1024 832 1024 320 c 0,7,8
 1024 128 1024 128 1344 128 c 1,9,-1
 1344 -128 l 1,10,11
 768 -128 768 -128 768 320 c 0,12,13
 768 704 768 704 384 704 c 1,14,-1
 384 960 l 1,15,16
 768 960 768 960 768 1344 c 0,17,18
 768 1792 768 1792 1344 1792 c 1,0,-1
EndSplineSet
Validated: 1
EndChar

StartChar: braceright
Encoding: 125 125 97
Width: 2048
Flags: W
LayerCount: 2
Fore
SplineSet
704 1792 m 1,0,-1
 704 1536 l 1,1,2
 1024 1536 1024 1536 1024 1344 c 0,3,4
 1024 832 1024 832 1280 832 c 1,5,6
 1024 832 1024 832 1024 320 c 0,7,8
 1024 128 1024 128 704 128 c 1,9,-1
 704 -128 l 1,10,11
 1280 -128 1280 -128 1280 320 c 0,12,13
 1280 704 1280 704 1664 704 c 1,14,-1
 1664 960 l 1,15,16
 1280 960 1280 960 1280 1344 c 0,17,18
 1280 1792 1280 1792 704 1792 c 1,0,-1
EndSplineSet
Validated: 9
EndChar

StartChar: asciitilde
Encoding: 126 126 98
Width: 2048
Flags: W
LayerCount: 2
Fore
SplineSet
192 960 m 1,0,1
 320 1152 320 1152 640 1152 c 0,2,3
 896 1152 896 1152 1024 960 c 128,-1,4
 1152 768 1152 768 1408 768 c 0,5,6
 1728 768 1728 768 1856 960 c 1,7,8
 1856 832 1856 832 1856 704 c 1,9,10
 1728 512 1728 512 1408 512 c 0,11,12
 1152 512 1152 512 1024 704 c 128,-1,13
 896 896 896 896 640 896 c 0,14,15
 320 896 320 896 192 704 c 1,16,-1
 192 960 l 1,0,1
EndSplineSet
Validated: 1
EndChar

StartChar: SF100000
Encoding: 9472 9472 99
Width: 1200
VWidth: 1950
Flags: W
LayerCount: 2
Fore
SplineSet
1661 781 m 1,0,-1
 1661 621 l 1,1,-1
 -401 620 l 5,2,-1
 -401 780 l 5,3,-1
 1661 781 l 1,0,-1
EndSplineSet
EndChar

StartChar: uni2501
Encoding: 9473 9473 100
Width: 1200
VWidth: 1950
Flags: W
LayerCount: 2
Fore
SplineSet
1210 940 m 1,0,-1
 1210 460 l 1,1,-1
 -10 460 l 1,2,-1
 -10 940 l 1,3,-1
 1210 940 l 1,0,-1
EndSplineSet
Validated: 1
EndChar

StartChar: SF110000
Encoding: 9474 9474 101
Width: 1200
VWidth: 1950
Flags: WO
LayerCount: 2
Fore
SplineSet
680 1790 m 1,0,-1
 680 898 l 5,1,-1
 520 898 l 5,2,-1
 520 1790 l 1,3,-1
 680 1790 l 1,0,-1
EndSplineSet
EndChar

StartChar: uni2503
Encoding: 9475 9475 102
Width: 1200
VWidth: 1950
Flags: W
LayerCount: 2
Fore
SplineSet
840 2000 m 1,0,-1
 840 -1000 l 1,1,-1
 360 -1000 l 1,2,-1
 360 2000 l 1,3,-1
 840 2000 l 1,0,-1
EndSplineSet
EndChar

StartChar: uni2504
Encoding: 9476 9476 103
Width: 1200
VWidth: 1950
Flags: W
LayerCount: 2
Fore
SplineSet
320 780 m 1,0,-1
 320 620 l 1,1,-1
 80 620 l 1,2,-1
 80 780 l 1,3,-1
 320 780 l 1,0,-1
720 780 m 1,4,-1
 720 620 l 1,5,-1
 480 620 l 1,6,-1
 480 780 l 1,7,-1
 720 780 l 1,4,-1
1120 780 m 1,8,-1
 1120 620 l 1,9,-1
 880 620 l 1,10,-1
 880 780 l 1,11,-1
 1120 780 l 1,8,-1
EndSplineSet
Validated: 1
EndChar

StartChar: uni2505
Encoding: 9477 9477 104
Width: 1200
VWidth: 1950
Flags: W
LayerCount: 2
Fore
SplineSet
320 940 m 1,0,-1
 320 460 l 1,1,-1
 80 460 l 1,2,-1
 80 940 l 1,3,-1
 320 940 l 1,0,-1
720 940 m 1,4,-1
 720 460 l 1,5,-1
 480 460 l 1,6,-1
 480 940 l 1,7,-1
 720 940 l 1,4,-1
1120 940 m 1,8,-1
 1120 460 l 1,9,-1
 880 460 l 1,10,-1
 880 940 l 1,11,-1
 1120 940 l 1,8,-1
EndSplineSet
Validated: 1
EndChar

StartChar: uni2506
Encoding: 9478 9478 105
Width: 1200
VWidth: 1950
Flags: W
LayerCount: 2
Fore
SplineSet
520 2200 m 1,0,-1
 680 2200 l 1,1,-1
 680 1400 l 1,2,-1
 520 1400 l 1,3,-1
 520 2200 l 1,0,-1
520 1240 m 1,4,-1
 680 1240 l 1,5,-1
 680 440 l 1,6,-1
 520 440 l 1,7,-1
 520 1240 l 1,4,-1
520 280 m 1,8,-1
 680 280 l 1,9,-1
 680 -520 l 1,10,-1
 520 -520 l 1,11,-1
 520 280 l 1,8,-1
EndSplineSet
Validated: 1
EndChar

StartChar: uni2507
Encoding: 9479 9479 106
Width: 1200
VWidth: 1950
Flags: W
LayerCount: 2
Fore
SplineSet
360 2200 m 1,0,-1
 840 2200 l 1,1,-1
 840 1400 l 1,2,-1
 360 1400 l 1,3,-1
 360 2200 l 1,0,-1
360 1240 m 1,4,-1
 840 1240 l 1,5,-1
 840 440 l 1,6,-1
 360 440 l 1,7,-1
 360 1240 l 1,4,-1
360 280 m 1,8,-1
 840 280 l 1,9,-1
 840 -520 l 1,10,-1
 360 -520 l 1,11,-1
 360 280 l 1,8,-1
EndSplineSet
Validated: 1
EndChar

StartChar: uni2508
Encoding: 9480 9480 107
Width: 1200
VWidth: 1950
Flags: W
LayerCount: 2
Fore
SplineSet
75 780 m 1,0,-1
 225 780 l 1,1,-1
 225 620 l 1,2,-1
 75 620 l 1,3,-1
 75 780 l 1,0,-1
375 780 m 1,4,-1
 525 780 l 1,5,-1
 525 620 l 1,6,-1
 375 620 l 1,7,-1
 375 780 l 1,4,-1
675 780 m 1,8,-1
 825 780 l 1,9,-1
 825 620 l 1,10,-1
 675 620 l 1,11,-1
 675 780 l 1,8,-1
975 780 m 1,12,-1
 1125 780 l 1,13,-1
 1125 620 l 1,14,-1
 975 620 l 1,15,-1
 975 780 l 1,12,-1
EndSplineSet
Validated: 1
EndChar

StartChar: uni2509
Encoding: 9481 9481 108
Width: 1200
VWidth: 1950
Flags: W
LayerCount: 2
Fore
SplineSet
75 940 m 1,0,-1
 225 940 l 1,1,-1
 225 460 l 1,2,-1
 75 460 l 1,3,-1
 75 940 l 1,0,-1
375 940 m 1,4,-1
 525 940 l 1,5,-1
 525 460 l 1,6,-1
 375 460 l 1,7,-1
 375 940 l 1,4,-1
675 940 m 1,8,-1
 825 940 l 1,9,-1
 825 460 l 1,10,-1
 675 460 l 1,11,-1
 675 940 l 1,8,-1
975 940 m 1,12,-1
 1125 940 l 1,13,-1
 1125 460 l 1,14,-1
 975 460 l 1,15,-1
 975 940 l 1,12,-1
EndSplineSet
Validated: 1
EndChar

StartChar: uni250A
Encoding: 9482 9482 109
Width: 1200
VWidth: 1950
Flags: W
LayerCount: 2
Fore
SplineSet
520 2120 m 1,0,-1
 680 2120 l 1,1,-1
 680 1580 l 1,2,-1
 520 1580 l 1,3,-1
 520 2120 l 1,0,-1
520 1420 m 1,4,-1
 680 1420 l 1,5,-1
 680 880 l 1,6,-1
 520 880 l 1,7,-1
 520 1420 l 1,4,-1
520 720 m 1,8,-1
 680 720 l 1,9,-1
 680 180 l 1,10,-1
 520 180 l 1,11,-1
 520 720 l 1,8,-1
520 20 m 1,12,-1
 680 20 l 1,13,-1
 680 -520 l 1,14,-1
 520 -520 l 1,15,-1
 520 20 l 1,12,-1
EndSplineSet
Validated: 1
EndChar

StartChar: uni250B
Encoding: 9483 9483 110
Width: 1200
VWidth: 1950
Flags: W
LayerCount: 2
Fore
SplineSet
360 2120 m 1,0,-1
 840 2120 l 1,1,-1
 840 1580 l 1,2,-1
 360 1580 l 1,3,-1
 360 2120 l 1,0,-1
360 1420 m 1,4,-1
 840 1420 l 1,5,-1
 840 880 l 1,6,-1
 360 880 l 1,7,-1
 360 1420 l 1,4,-1
360 720 m 1,8,-1
 840 720 l 1,9,-1
 840 180 l 1,10,-1
 360 180 l 1,11,-1
 360 720 l 1,8,-1
360 20 m 1,12,-1
 840 20 l 1,13,-1
 840 -520 l 1,14,-1
 360 -520 l 1,15,-1
 360 20 l 1,12,-1
EndSplineSet
Validated: 1
EndChar

StartChar: SF010000
Encoding: 9484 9484 111
Width: 1200
VWidth: 1950
Flags: W
LayerCount: 2
Fore
SplineSet
1210 780 m 1,0,-1
 1210 620 l 1,1,-1
 680 620 l 1,2,-1
 680 -1000 l 1,3,-1
 520 -1000 l 1,4,-1
 520 780 l 1,5,-1
 1210 780 l 1,0,-1
EndSplineSet
Validated: 1
EndChar

StartChar: uni250D
Encoding: 9485 9485 112
Width: 1200
VWidth: 1950
Flags: W
LayerCount: 2
Fore
SplineSet
1210 940 m 1,0,-1
 1210 460 l 1,1,-1
 680 460 l 1,2,-1
 680 -1000 l 1,3,-1
 520 -1000 l 1,4,-1
 520 940 l 1,5,-1
 1210 940 l 1,0,-1
EndSplineSet
Validated: 1
EndChar

StartChar: uni250E
Encoding: 9486 9486 113
Width: 1200
VWidth: 1950
Flags: W
LayerCount: 2
Fore
SplineSet
1210 780 m 1,0,-1
 1210 620 l 1,1,-1
 840 620 l 1,2,-1
 840 -1000 l 1,3,-1
 360 -1000 l 1,4,-1
 360 780 l 1,5,-1
 1210 780 l 1,0,-1
EndSplineSet
Validated: 1
EndChar

StartChar: uni250F
Encoding: 9487 9487 114
Width: 1200
VWidth: 1950
Flags: W
LayerCount: 2
Fore
SplineSet
1210 940 m 1,0,-1
 1210 460 l 1,1,-1
 840 460 l 1,2,-1
 840 -1000 l 1,3,-1
 360 -1000 l 1,4,-1
 360 940 l 1,5,-1
 1210 940 l 1,0,-1
EndSplineSet
Validated: 1
EndChar

StartChar: SF030000
Encoding: 9488 9488 115
Width: 1200
VWidth: 1950
Flags: W
LayerCount: 2
Fore
SplineSet
680 780 m 1,0,-1
 680 -1000 l 1,1,-1
 520 -1000 l 1,2,-1
 520 620 l 1,3,-1
 -10 620 l 1,4,-1
 -10 780 l 1,5,-1
 680 780 l 1,0,-1
EndSplineSet
Validated: 1
EndChar

StartChar: uni2511
Encoding: 9489 9489 116
Width: 1200
VWidth: 1950
Flags: W
LayerCount: 2
Fore
SplineSet
680 940 m 1,0,-1
 680 -1000 l 1,1,-1
 520 -1000 l 1,2,-1
 520 460 l 1,3,-1
 -10 460 l 1,4,-1
 -10 940 l 1,5,-1
 680 940 l 1,0,-1
EndSplineSet
Validated: 1
EndChar

StartChar: uni2512
Encoding: 9490 9490 117
Width: 1200
VWidth: 1950
Flags: W
LayerCount: 2
Fore
SplineSet
840 780 m 1,0,-1
 840 -1000 l 1,1,-1
 360 -1000 l 1,2,-1
 360 620 l 1,3,-1
 -10 620 l 1,4,-1
 -10 780 l 1,5,-1
 840 780 l 1,0,-1
EndSplineSet
Validated: 1
EndChar

StartChar: uni2513
Encoding: 9491 9491 118
Width: 1200
VWidth: 1950
Flags: W
LayerCount: 2
Fore
SplineSet
840 940 m 1,0,-1
 840 -1000 l 1,1,-1
 360 -1000 l 1,2,-1
 360 460 l 1,3,-1
 -10 460 l 1,4,-1
 -10 940 l 1,5,-1
 840 940 l 1,0,-1
EndSplineSet
Validated: 1
EndChar

StartChar: SF020000
Encoding: 9492 9492 119
Width: 1200
VWidth: 1950
Flags: W
LayerCount: 2
Fore
SplineSet
680 2000 m 1,0,-1
 680 780 l 1,1,-1
 1210 780 l 1,2,-1
 1210 620 l 1,3,-1
 520 620 l 1,4,-1
 520 2000 l 1,5,-1
 680 2000 l 1,0,-1
EndSplineSet
Validated: 1
EndChar

StartChar: uni2515
Encoding: 9493 9493 120
Width: 1200
VWidth: 1950
Flags: W
LayerCount: 2
Fore
SplineSet
680 2000 m 1,0,-1
 680 940 l 1,1,-1
 1210 940 l 1,2,-1
 1210 460 l 1,3,-1
 520 460 l 1,4,-1
 520 2000 l 1,5,-1
 680 2000 l 1,0,-1
EndSplineSet
Validated: 1
EndChar

StartChar: uni2516
Encoding: 9494 9494 121
Width: 1200
VWidth: 1950
Flags: W
LayerCount: 2
Fore
SplineSet
840 2000 m 1,0,-1
 840 780 l 1,1,-1
 1210 780 l 1,2,-1
 1210 620 l 1,3,-1
 360 620 l 1,4,-1
 360 2000 l 1,5,-1
 840 2000 l 1,0,-1
EndSplineSet
Validated: 1
EndChar

StartChar: uni2517
Encoding: 9495 9495 122
Width: 1200
VWidth: 1950
Flags: W
LayerCount: 2
Fore
SplineSet
840 2000 m 1,0,-1
 840 940 l 1,1,-1
 1210 940 l 1,2,-1
 1210 460 l 1,3,-1
 360 460 l 1,4,-1
 360 2000 l 1,5,-1
 840 2000 l 1,0,-1
EndSplineSet
Validated: 1
EndChar

StartChar: SF040000
Encoding: 9496 9496 123
Width: 1200
VWidth: 1950
Flags: W
LayerCount: 2
Fore
SplineSet
680 2000 m 1,0,-1
 680 620 l 1,1,-1
 -10 620 l 1,2,-1
 -10 780 l 1,3,-1
 520 780 l 1,4,-1
 520 2000 l 1,5,-1
 680 2000 l 1,0,-1
EndSplineSet
Validated: 1
EndChar

StartChar: uni2519
Encoding: 9497 9497 124
Width: 1200
VWidth: 1950
Flags: W
LayerCount: 2
Fore
SplineSet
680 2000 m 1,0,-1
 680 460 l 1,1,-1
 -10 460 l 1,2,-1
 -10 940 l 1,3,-1
 520 940 l 1,4,-1
 520 2000 l 1,5,-1
 680 2000 l 1,0,-1
EndSplineSet
Validated: 1
EndChar

StartChar: uni251A
Encoding: 9498 9498 125
Width: 1200
VWidth: 1950
Flags: W
LayerCount: 2
Fore
SplineSet
840 2000 m 1,0,-1
 840 620 l 1,1,-1
 -10 620 l 1,2,-1
 -10 780 l 1,3,-1
 360 780 l 1,4,-1
 360 2000 l 1,5,-1
 840 2000 l 1,0,-1
EndSplineSet
Validated: 1
EndChar

StartChar: uni251B
Encoding: 9499 9499 126
Width: 1200
VWidth: 1950
Flags: W
LayerCount: 2
Fore
SplineSet
840 2000 m 1,0,-1
 840 460 l 1,1,-1
 -10 460 l 1,2,-1
 -10 940 l 1,3,-1
 360 940 l 1,4,-1
 360 2000 l 1,5,-1
 840 2000 l 1,0,-1
EndSplineSet
Validated: 1
EndChar

StartChar: SF080000
Encoding: 9500 9500 127
Width: 1200
VWidth: 1950
Flags: W
LayerCount: 2
Fore
SplineSet
680 2000 m 1,0,-1
 680 780 l 1,1,-1
 1210 780 l 1,2,-1
 1210 620 l 1,3,-1
 680 620 l 1,4,-1
 680 -1000 l 1,5,-1
 520 -1000 l 1,6,-1
 520 2000 l 1,7,-1
 680 2000 l 1,0,-1
EndSplineSet
Validated: 1
EndChar

StartChar: uni251D
Encoding: 9501 9501 128
Width: 1200
VWidth: 1950
Flags: W
LayerCount: 2
Fore
SplineSet
680 2000 m 1,0,-1
 680 940 l 1,1,-1
 1210 940 l 1,2,-1
 1210 460 l 1,3,-1
 680 460 l 1,4,-1
 680 -1000 l 1,5,-1
 520 -1000 l 1,6,-1
 520 2000 l 1,7,-1
 680 2000 l 1,0,-1
EndSplineSet
Validated: 1
EndChar

StartChar: uni251E
Encoding: 9502 9502 129
Width: 1200
VWidth: 1950
Flags: W
LayerCount: 2
Fore
SplineSet
840 2000 m 1,0,-1
 840 780 l 1,1,-1
 1210 780 l 1,2,-1
 1210 620 l 1,3,-1
 680 620 l 1,4,-1
 680 -1000 l 1,5,-1
 520 -1000 l 1,6,-1
 520 620 l 1,7,-1
 360 620 l 1,8,-1
 360 2000 l 1,9,-1
 840 2000 l 1,0,-1
EndSplineSet
Validated: 1
EndChar

StartChar: uni251F
Encoding: 9503 9503 130
Width: 1200
VWidth: 1950
Flags: W
LayerCount: 2
Fore
SplineSet
680 2000 m 1,0,-1
 680 780 l 1,1,-1
 1210 780 l 1,2,-1
 1210 620 l 1,3,-1
 840 620 l 1,4,-1
 840 -1000 l 1,5,-1
 360 -1000 l 1,6,-1
 360 780 l 1,7,-1
 520 780 l 1,8,-1
 520 2000 l 1,9,-1
 680 2000 l 1,0,-1
EndSplineSet
Validated: 1
EndChar

StartChar: uni2520
Encoding: 9504 9504 131
Width: 1200
VWidth: 1950
Flags: W
LayerCount: 2
Fore
SplineSet
840 2000 m 1,0,-1
 840 780 l 1,1,-1
 1210 780 l 1,2,-1
 1210 620 l 1,3,-1
 840 620 l 1,4,-1
 840 -1000 l 1,5,-1
 360 -1000 l 1,6,-1
 360 2000 l 1,7,-1
 840 2000 l 1,0,-1
EndSplineSet
Validated: 1
EndChar

StartChar: uni2521
Encoding: 9505 9505 132
Width: 1200
VWidth: 1950
Flags: W
LayerCount: 2
Fore
SplineSet
840 2000 m 1,0,-1
 840 940 l 1,1,-1
 1210 940 l 1,2,-1
 1210 460 l 1,3,-1
 680 460 l 1,4,-1
 680 -1000 l 1,5,-1
 520 -1000 l 1,6,-1
 520 460 l 1,7,-1
 360 460 l 1,8,-1
 360 2000 l 1,9,-1
 840 2000 l 1,0,-1
EndSplineSet
Validated: 1
EndChar

StartChar: uni2522
Encoding: 9506 9506 133
Width: 1200
VWidth: 1950
Flags: W
LayerCount: 2
Fore
SplineSet
680 2000 m 1,0,-1
 680 940 l 1,1,-1
 1210 940 l 1,2,-1
 1210 460 l 1,3,-1
 840 460 l 1,4,-1
 840 -1000 l 1,5,-1
 360 -1000 l 1,6,-1
 360 940 l 1,7,-1
 520 940 l 1,8,-1
 520 2000 l 1,9,-1
 680 2000 l 1,0,-1
EndSplineSet
Validated: 1
EndChar

StartChar: uni2523
Encoding: 9507 9507 134
Width: 1200
VWidth: 1950
Flags: W
LayerCount: 2
Fore
SplineSet
840 2000 m 1,0,-1
 840 940 l 1,1,-1
 1210 940 l 1,2,-1
 1210 460 l 1,3,-1
 840 460 l 1,4,-1
 840 -1000 l 1,5,-1
 360 -1000 l 1,6,-1
 360 2000 l 1,7,-1
 840 2000 l 1,0,-1
EndSplineSet
Validated: 1
EndChar

StartChar: SF090000
Encoding: 9508 9508 135
Width: 1200
VWidth: 1950
Flags: W
LayerCount: 2
Fore
SplineSet
680 2000 m 1,0,-1
 680 -1000 l 1,1,-1
 520 -1000 l 1,2,-1
 520 620 l 1,3,-1
 -10 620 l 1,4,-1
 -10 780 l 1,5,-1
 520 780 l 1,6,-1
 520 2000 l 1,7,-1
 680 2000 l 1,0,-1
EndSplineSet
Validated: 1
EndChar

StartChar: uni2525
Encoding: 9509 9509 136
Width: 1200
VWidth: 1950
Flags: W
LayerCount: 2
Fore
SplineSet
680 2000 m 1,0,-1
 680 -1000 l 1,1,-1
 520 -1000 l 1,2,-1
 520 460 l 1,3,-1
 -10 460 l 1,4,-1
 -10 940 l 1,5,-1
 520 940 l 1,6,-1
 520 2000 l 1,7,-1
 680 2000 l 1,0,-1
EndSplineSet
Validated: 1
EndChar

StartChar: uni2526
Encoding: 9510 9510 137
Width: 1200
VWidth: 1950
Flags: W
LayerCount: 2
Fore
SplineSet
840 2000 m 1,0,-1
 840 620 l 1,1,-1
 680 620 l 1,2,-1
 680 -1000 l 1,3,-1
 520 -1000 l 1,4,-1
 520 620 l 1,5,-1
 -10 620 l 1,6,-1
 -10 780 l 1,7,-1
 360 780 l 1,8,-1
 360 2000 l 1,9,-1
 840 2000 l 1,0,-1
EndSplineSet
Validated: 1
EndChar

StartChar: uni2527
Encoding: 9511 9511 138
Width: 1200
VWidth: 1950
Flags: W
LayerCount: 2
Fore
SplineSet
680 2000 m 1,0,-1
 680 780 l 1,1,-1
 840 780 l 1,2,-1
 840 -1000 l 1,3,-1
 360 -1000 l 1,4,-1
 360 620 l 1,5,-1
 -10 620 l 1,6,-1
 -10 780 l 1,7,-1
 520 780 l 1,8,-1
 520 2000 l 1,9,-1
 680 2000 l 1,0,-1
EndSplineSet
Validated: 1
EndChar

StartChar: uni2528
Encoding: 9512 9512 139
Width: 1200
VWidth: 1950
Flags: W
LayerCount: 2
Fore
SplineSet
840 2000 m 1,0,-1
 840 -1000 l 1,1,-1
 360 -1000 l 1,2,-1
 360 620 l 1,3,-1
 -10 620 l 1,4,-1
 -10 780 l 1,5,-1
 360 780 l 1,6,-1
 360 2000 l 1,7,-1
 840 2000 l 1,0,-1
EndSplineSet
Validated: 1
EndChar

StartChar: uni2529
Encoding: 9513 9513 140
Width: 1200
VWidth: 1950
Flags: W
LayerCount: 2
Fore
SplineSet
840 2000 m 1,0,-1
 840 460 l 1,1,-1
 680 460 l 1,2,-1
 680 -1000 l 1,3,-1
 520 -1000 l 1,4,-1
 520 460 l 1,5,-1
 -10 460 l 1,6,-1
 -10 940 l 1,7,-1
 360 940 l 1,8,-1
 360 2000 l 1,9,-1
 840 2000 l 1,0,-1
EndSplineSet
Validated: 1
EndChar

StartChar: uni252A
Encoding: 9514 9514 141
Width: 1200
VWidth: 1950
Flags: W
LayerCount: 2
Fore
SplineSet
680 2000 m 1,0,-1
 680 940 l 1,1,-1
 840 940 l 1,2,-1
 840 -1000 l 1,3,-1
 360 -1000 l 1,4,-1
 360 460 l 1,5,-1
 -10 460 l 1,6,-1
 -10 940 l 1,7,-1
 520 940 l 1,8,-1
 520 2000 l 1,9,-1
 680 2000 l 1,0,-1
EndSplineSet
Validated: 1
EndChar

StartChar: uni252B
Encoding: 9515 9515 142
Width: 1200
VWidth: 1950
Flags: W
LayerCount: 2
Fore
SplineSet
840 2000 m 1,0,-1
 840 -1000 l 1,1,-1
 360 -1000 l 1,2,-1
 360 460 l 1,3,-1
 -10 460 l 1,4,-1
 -10 940 l 1,5,-1
 360 940 l 1,6,-1
 360 2000 l 1,7,-1
 840 2000 l 1,0,-1
EndSplineSet
Validated: 1
EndChar

StartChar: SF060000
Encoding: 9516 9516 143
Width: 1200
VWidth: 1950
Flags: W
LayerCount: 2
Fore
SplineSet
1210 780 m 1,0,-1
 1210 620 l 1,1,-1
 680 620 l 1,2,-1
 680 -1000 l 1,3,-1
 520 -1000 l 1,4,-1
 520 620 l 1,5,-1
 -10 620 l 1,6,-1
 -10 780 l 1,7,-1
 1210 780 l 1,0,-1
EndSplineSet
Validated: 1
EndChar

StartChar: uni252D
Encoding: 9517 9517 144
Width: 1200
VWidth: 1950
Flags: W
LayerCount: 2
Fore
SplineSet
680 940 m 1,0,-1
 680 780 l 1,1,-1
 1210 780 l 1,2,-1
 1210 620 l 1,3,-1
 680 620 l 1,4,-1
 680 -1000 l 1,5,-1
 520 -1000 l 1,6,-1
 520 460 l 1,7,-1
 -10 460 l 1,8,-1
 -10 940 l 1,9,-1
 680 940 l 1,0,-1
EndSplineSet
Validated: 1
EndChar

StartChar: uni252E
Encoding: 9518 9518 145
Width: 1200
VWidth: 1950
Flags: W
LayerCount: 2
Fore
SplineSet
1210 940 m 1,0,-1
 1210 460 l 1,1,-1
 680 460 l 1,2,-1
 680 -1000 l 1,3,-1
 520 -1000 l 1,4,-1
 520 620 l 1,5,-1
 -10 620 l 1,6,-1
 -10 780 l 1,7,-1
 520 780 l 1,8,-1
 520 940 l 1,9,-1
 1210 940 l 1,0,-1
EndSplineSet
Validated: 1
EndChar

StartChar: uni252F
Encoding: 9519 9519 146
Width: 1200
VWidth: 1950
Flags: W
LayerCount: 2
Fore
SplineSet
1210 940 m 1,0,-1
 1210 460 l 1,1,-1
 680 460 l 1,2,-1
 680 -1000 l 1,3,-1
 520 -1000 l 1,4,-1
 520 460 l 1,5,-1
 -10 460 l 1,6,-1
 -10 940 l 1,7,-1
 1210 940 l 1,0,-1
EndSplineSet
Validated: 1
EndChar

StartChar: uni2530
Encoding: 9520 9520 147
Width: 1200
VWidth: 1950
Flags: W
LayerCount: 2
Fore
SplineSet
1210 780 m 1,0,-1
 1210 620 l 1,1,-1
 840 620 l 1,2,-1
 840 -1000 l 1,3,-1
 360 -1000 l 1,4,-1
 360 620 l 1,5,-1
 -10 620 l 1,6,-1
 -10 780 l 1,7,-1
 1210 780 l 1,0,-1
EndSplineSet
Validated: 1
EndChar

StartChar: uni2531
Encoding: 9521 9521 148
Width: 1200
VWidth: 1950
Flags: W
LayerCount: 2
Fore
SplineSet
840 940 m 1,0,-1
 840 780 l 1,1,-1
 1210 780 l 1,2,-1
 1210 620 l 1,3,-1
 840 620 l 1,4,-1
 840 -1000 l 1,5,-1
 360 -1000 l 1,6,-1
 360 460 l 1,7,-1
 -10 460 l 1,8,-1
 -10 940 l 1,9,-1
 840 940 l 1,0,-1
EndSplineSet
Validated: 1
EndChar

StartChar: uni2532
Encoding: 9522 9522 149
Width: 1200
VWidth: 1950
Flags: W
LayerCount: 2
Fore
SplineSet
1210 940 m 1,0,-1
 1210 460 l 1,1,-1
 840 460 l 1,2,-1
 840 -1000 l 1,3,-1
 360 -1000 l 1,4,-1
 360 620 l 1,5,-1
 -10 620 l 1,6,-1
 -10 780 l 1,7,-1
 360 780 l 1,8,-1
 360 940 l 1,9,-1
 1210 940 l 1,0,-1
EndSplineSet
Validated: 1
EndChar

StartChar: uni2533
Encoding: 9523 9523 150
Width: 1200
VWidth: 1950
Flags: W
LayerCount: 2
Fore
SplineSet
1210 940 m 1,0,-1
 1210 460 l 1,1,-1
 840 460 l 1,2,-1
 840 -1000 l 1,3,-1
 360 -1000 l 1,4,-1
 360 460 l 1,5,-1
 -10 460 l 1,6,-1
 -10 940 l 1,7,-1
 1210 940 l 1,0,-1
EndSplineSet
Validated: 1
EndChar

StartChar: SF070000
Encoding: 9524 9524 151
Width: 1200
VWidth: 1950
Flags: W
LayerCount: 2
Fore
SplineSet
680 2000 m 1,0,-1
 680 780 l 1,1,-1
 1210 780 l 1,2,-1
 1210 620 l 1,3,-1
 -10 620 l 1,4,-1
 -10 780 l 1,5,-1
 520 780 l 1,6,-1
 520 2000 l 1,7,-1
 680 2000 l 1,0,-1
EndSplineSet
Validated: 1
EndChar

StartChar: uni2535
Encoding: 9525 9525 152
Width: 1200
VWidth: 1950
Flags: W
LayerCount: 2
Fore
SplineSet
680 2000 m 1,0,-1
 680 780 l 1,1,-1
 1210 780 l 1,2,-1
 1210 620 l 1,3,-1
 680 620 l 1,4,-1
 680 460 l 1,5,-1
 -10 460 l 1,6,-1
 -10 940 l 1,7,-1
 520 940 l 1,8,-1
 520 2000 l 1,9,-1
 680 2000 l 1,0,-1
EndSplineSet
Validated: 1
EndChar

StartChar: uni2536
Encoding: 9526 9526 153
Width: 1200
VWidth: 1950
Flags: W
LayerCount: 2
Fore
SplineSet
680 2000 m 1,0,-1
 680 940 l 1,1,-1
 1210 940 l 1,2,-1
 1210 460 l 1,3,-1
 520 460 l 1,4,-1
 520 620 l 1,5,-1
 -10 620 l 1,6,-1
 -10 780 l 1,7,-1
 520 780 l 1,8,-1
 520 2000 l 1,9,-1
 680 2000 l 1,0,-1
EndSplineSet
Validated: 1
EndChar

StartChar: uni2537
Encoding: 9527 9527 154
Width: 1200
VWidth: 1950
Flags: W
LayerCount: 2
Fore
SplineSet
680 2000 m 1,0,-1
 680 940 l 1,1,-1
 1210 940 l 1,2,-1
 1210 460 l 1,3,-1
 -10 460 l 1,4,-1
 -10 940 l 1,5,-1
 520 940 l 1,6,-1
 520 2000 l 1,7,-1
 680 2000 l 1,0,-1
EndSplineSet
Validated: 1
EndChar

StartChar: uni2538
Encoding: 9528 9528 155
Width: 1200
VWidth: 1950
Flags: W
LayerCount: 2
Fore
SplineSet
840 2000 m 1,0,-1
 840 780 l 1,1,-1
 1210 780 l 1,2,-1
 1210 620 l 1,3,-1
 -10 620 l 1,4,-1
 -10 780 l 1,5,-1
 360 780 l 1,6,-1
 360 2000 l 1,7,-1
 840 2000 l 1,0,-1
EndSplineSet
Validated: 1
EndChar

StartChar: uni2539
Encoding: 9529 9529 156
Width: 1200
VWidth: 1950
Flags: W
LayerCount: 2
Fore
SplineSet
840 2000 m 1,0,-1
 840 780 l 1,1,-1
 1210 780 l 1,2,-1
 1210 620 l 1,3,-1
 840 620 l 1,4,-1
 840 460 l 1,5,-1
 -10 460 l 1,6,-1
 -10 940 l 1,7,-1
 360 940 l 1,8,-1
 360 2000 l 1,9,-1
 840 2000 l 1,0,-1
EndSplineSet
Validated: 1
EndChar

StartChar: uni253A
Encoding: 9530 9530 157
Width: 1200
VWidth: 1950
Flags: W
LayerCount: 2
Fore
SplineSet
840 2000 m 1,0,-1
 840 940 l 1,1,-1
 1210 940 l 1,2,-1
 1210 460 l 1,3,-1
 360 460 l 1,4,-1
 360 620 l 1,5,-1
 -10 620 l 1,6,-1
 -10 780 l 1,7,-1
 360 780 l 1,8,-1
 360 2000 l 1,9,-1
 840 2000 l 1,0,-1
EndSplineSet
Validated: 1
EndChar

StartChar: uni253B
Encoding: 9531 9531 158
Width: 1200
VWidth: 1950
Flags: W
LayerCount: 2
Fore
SplineSet
840 2000 m 1,0,-1
 840 940 l 1,1,-1
 1210 940 l 1,2,-1
 1210 460 l 1,3,-1
 -10 460 l 1,4,-1
 -10 940 l 1,5,-1
 360 940 l 1,6,-1
 360 2000 l 1,7,-1
 840 2000 l 1,0,-1
EndSplineSet
Validated: 1
EndChar

StartChar: SF050000
Encoding: 9532 9532 159
Width: 1200
VWidth: 1950
Flags: W
LayerCount: 2
Fore
SplineSet
680 2000 m 1,0,-1
 680 780 l 1,1,-1
 1210 780 l 1,2,-1
 1210 620 l 1,3,-1
 680 620 l 1,4,-1
 680 -1000 l 1,5,-1
 520 -1000 l 1,6,-1
 520 620 l 1,7,-1
 -10 620 l 1,8,-1
 -10 780 l 1,9,-1
 520 780 l 1,10,-1
 520 2000 l 1,11,-1
 680 2000 l 1,0,-1
EndSplineSet
Validated: 1
EndChar

StartChar: uni253D
Encoding: 9533 9533 160
Width: 1200
VWidth: 1950
Flags: W
LayerCount: 2
Fore
SplineSet
680 2000 m 1,0,-1
 680 780 l 1,1,-1
 1210 780 l 1,2,-1
 1210 620 l 1,3,-1
 680 620 l 1,4,-1
 680 -1000 l 1,5,-1
 520 -1000 l 1,6,-1
 520 460 l 1,7,-1
 -10 460 l 1,8,-1
 -10 940 l 1,9,-1
 520 940 l 1,10,-1
 520 2000 l 1,11,-1
 680 2000 l 1,0,-1
EndSplineSet
Validated: 1
EndChar

StartChar: uni253E
Encoding: 9534 9534 161
Width: 1200
VWidth: 1950
Flags: W
LayerCount: 2
Fore
SplineSet
680 2000 m 1,0,-1
 680 940 l 1,1,-1
 1210 940 l 1,2,-1
 1210 460 l 1,3,-1
 680 460 l 1,4,-1
 680 -1000 l 1,5,-1
 520 -1000 l 1,6,-1
 520 620 l 1,7,-1
 -10 620 l 1,8,-1
 -10 780 l 1,9,-1
 520 780 l 1,10,-1
 520 2000 l 1,11,-1
 680 2000 l 1,0,-1
EndSplineSet
Validated: 1
EndChar

StartChar: uni253F
Encoding: 9535 9535 162
Width: 1200
VWidth: 1950
Flags: W
LayerCount: 2
Fore
SplineSet
680 2000 m 1,0,-1
 680 940 l 1,1,-1
 1210 940 l 1,2,-1
 1210 460 l 1,3,-1
 680 460 l 1,4,-1
 680 -1000 l 1,5,-1
 520 -1000 l 1,6,-1
 520 460 l 1,7,-1
 -10 460 l 1,8,-1
 -10 940 l 1,9,-1
 520 940 l 1,10,-1
 520 2000 l 1,11,-1
 680 2000 l 1,0,-1
EndSplineSet
Validated: 1
EndChar

StartChar: uni2540
Encoding: 9536 9536 163
Width: 1200
VWidth: 1950
Flags: W
LayerCount: 2
Fore
SplineSet
840 2000 m 1,0,-1
 840 780 l 1,1,-1
 1210 780 l 1,2,-1
 1210 620 l 1,3,-1
 680 620 l 1,4,-1
 680 -1000 l 1,5,-1
 520 -1000 l 1,6,-1
 520 620 l 1,7,-1
 -10 620 l 1,8,-1
 -10 780 l 1,9,-1
 360 780 l 1,10,-1
 360 2000 l 1,11,-1
 840 2000 l 1,0,-1
EndSplineSet
Validated: 1
EndChar

StartChar: uni2541
Encoding: 9537 9537 164
Width: 1200
VWidth: 1950
Flags: W
LayerCount: 2
Fore
SplineSet
680 2000 m 1,0,-1
 680 780 l 1,1,-1
 1210 780 l 1,2,-1
 1210 620 l 1,3,-1
 840 620 l 1,4,-1
 840 -1000 l 1,5,-1
 360 -1000 l 1,6,-1
 360 620 l 1,7,-1
 -10 620 l 1,8,-1
 -10 780 l 1,9,-1
 520 780 l 1,10,-1
 520 2000 l 1,11,-1
 680 2000 l 1,0,-1
EndSplineSet
Validated: 1
EndChar

StartChar: uni2542
Encoding: 9538 9538 165
Width: 1200
VWidth: 1950
Flags: W
LayerCount: 2
Fore
SplineSet
840 2000 m 1,0,-1
 840 780 l 1,1,-1
 1210 780 l 1,2,-1
 1210 620 l 1,3,-1
 840 620 l 1,4,-1
 840 -1000 l 1,5,-1
 360 -1000 l 1,6,-1
 360 620 l 1,7,-1
 -10 620 l 1,8,-1
 -10 780 l 1,9,-1
 360 780 l 1,10,-1
 360 2000 l 1,11,-1
 840 2000 l 1,0,-1
EndSplineSet
Validated: 1
EndChar

StartChar: uni2543
Encoding: 9539 9539 166
Width: 1200
VWidth: 1950
Flags: W
LayerCount: 2
Fore
SplineSet
840 2000 m 1,0,-1
 840 780 l 1,1,-1
 1210 780 l 1,2,-1
 1210 620 l 1,3,-1
 840 620 l 1,4,-1
 840 460 l 1,5,-1
 680 460 l 1,6,-1
 680 -1000 l 1,7,-1
 520 -1000 l 1,8,-1
 520 460 l 1,9,-1
 -10 460 l 1,10,-1
 -10 940 l 1,11,-1
 360 940 l 1,12,-1
 360 2000 l 1,13,-1
 840 2000 l 1,0,-1
EndSplineSet
Validated: 1
EndChar

StartChar: uni2544
Encoding: 9540 9540 167
Width: 1200
VWidth: 1950
Flags: W
LayerCount: 2
Fore
SplineSet
840 2000 m 1,0,-1
 840 940 l 1,1,-1
 1210 940 l 1,2,-1
 1210 460 l 1,3,-1
 680 460 l 1,4,-1
 680 -1000 l 1,5,-1
 520 -1000 l 1,6,-1
 520 460 l 1,7,-1
 360 460 l 1,8,-1
 360 620 l 1,9,-1
 -10 620 l 1,10,-1
 -10 780 l 1,11,-1
 360 780 l 1,12,-1
 360 2000 l 1,13,-1
 840 2000 l 1,0,-1
EndSplineSet
Validated: 1
EndChar

StartChar: uni2545
Encoding: 9541 9541 168
Width: 1200
VWidth: 1950
Flags: W
LayerCount: 2
Fore
SplineSet
680 2000 m 1,0,-1
 680 940 l 1,1,-1
 840 940 l 1,2,-1
 840 780 l 1,3,-1
 1210 780 l 1,4,-1
 1210 620 l 1,5,-1
 840 620 l 1,6,-1
 840 -1000 l 1,7,-1
 360 -1000 l 1,8,-1
 360 460 l 1,9,-1
 -10 460 l 1,10,-1
 -10 940 l 1,11,-1
 520 940 l 1,12,-1
 520 2000 l 1,13,-1
 680 2000 l 1,0,-1
EndSplineSet
Validated: 1
EndChar

StartChar: uni2546
Encoding: 9542 9542 169
Width: 1200
VWidth: 1950
Flags: W
LayerCount: 2
Fore
SplineSet
680 2000 m 1,0,-1
 680 940 l 1,1,-1
 1210 940 l 1,2,-1
 1210 460 l 1,3,-1
 840 460 l 1,4,-1
 840 -1000 l 1,5,-1
 360 -1000 l 1,6,-1
 360 620 l 1,7,-1
 -10 620 l 1,8,-1
 -10 780 l 1,9,-1
 360 780 l 1,10,-1
 360 940 l 1,11,-1
 520 940 l 1,12,-1
 520 2000 l 1,13,-1
 680 2000 l 1,0,-1
EndSplineSet
Validated: 1
EndChar

StartChar: uni2547
Encoding: 9543 9543 170
Width: 1200
VWidth: 1950
Flags: W
LayerCount: 2
Fore
SplineSet
840 2000 m 1,0,-1
 840 940 l 1,1,-1
 1210 940 l 1,2,-1
 1210 460 l 1,3,-1
 680 460 l 1,4,-1
 680 -1000 l 1,5,-1
 520 -1000 l 1,6,-1
 520 460 l 1,7,-1
 -10 460 l 1,8,-1
 -10 940 l 1,9,-1
 360 940 l 1,10,-1
 360 2000 l 1,11,-1
 840 2000 l 1,0,-1
EndSplineSet
Validated: 1
EndChar

StartChar: uni2548
Encoding: 9544 9544 171
Width: 1200
VWidth: 1950
Flags: W
LayerCount: 2
Fore
SplineSet
680 2000 m 1,0,-1
 680 940 l 1,1,-1
 1210 940 l 1,2,-1
 1210 460 l 1,3,-1
 840 460 l 1,4,-1
 840 -1000 l 1,5,-1
 360 -1000 l 1,6,-1
 360 460 l 1,7,-1
 -10 460 l 1,8,-1
 -10 940 l 1,9,-1
 520 940 l 1,10,-1
 520 2000 l 1,11,-1
 680 2000 l 1,0,-1
EndSplineSet
Validated: 1
EndChar

StartChar: uni2549
Encoding: 9545 9545 172
Width: 1200
VWidth: 1950
Flags: W
LayerCount: 2
Fore
SplineSet
840 2000 m 1,0,-1
 840 780 l 1,1,-1
 1210 780 l 1,2,-1
 1210 620 l 1,3,-1
 840 620 l 1,4,-1
 840 -1000 l 1,5,-1
 360 -1000 l 1,6,-1
 360 460 l 1,7,-1
 -10 460 l 1,8,-1
 -10 940 l 1,9,-1
 360 940 l 1,10,-1
 360 2000 l 1,11,-1
 840 2000 l 1,0,-1
EndSplineSet
Validated: 1
EndChar

StartChar: uni254A
Encoding: 9546 9546 173
Width: 1200
VWidth: 1950
Flags: W
LayerCount: 2
Fore
SplineSet
840 2000 m 1,0,-1
 840 940 l 1,1,-1
 1210 940 l 1,2,-1
 1210 460 l 1,3,-1
 840 460 l 1,4,-1
 840 -1000 l 1,5,-1
 360 -1000 l 1,6,-1
 360 620 l 1,7,-1
 -10 620 l 1,8,-1
 -10 780 l 1,9,-1
 360 780 l 1,10,-1
 360 2000 l 1,11,-1
 840 2000 l 1,0,-1
EndSplineSet
Validated: 1
EndChar

StartChar: uni254B
Encoding: 9547 9547 174
Width: 1200
VWidth: 1950
Flags: W
LayerCount: 2
Fore
SplineSet
840 2000 m 1,0,-1
 840 940 l 1,1,-1
 1210 940 l 1,2,-1
 1210 460 l 1,3,-1
 840 460 l 1,4,-1
 840 -1000 l 1,5,-1
 360 -1000 l 1,6,-1
 360 460 l 1,7,-1
 -10 460 l 1,8,-1
 -10 940 l 1,9,-1
 360 940 l 1,10,-1
 360 2000 l 1,11,-1
 840 2000 l 1,0,-1
EndSplineSet
Validated: 1
EndChar

StartChar: uni254C
Encoding: 9548 9548 175
Width: 1200
VWidth: 1950
Flags: W
LayerCount: 2
Fore
SplineSet
520 780 m 1,0,-1
 520 620 l 1,1,-1
 80 620 l 1,2,-1
 80 780 l 1,3,-1
 520 780 l 1,0,-1
1120 780 m 1,4,-1
 1120 620 l 1,5,-1
 680 620 l 1,6,-1
 680 780 l 1,7,-1
 1120 780 l 1,4,-1
EndSplineSet
Validated: 1
EndChar

StartChar: uni254D
Encoding: 9549 9549 176
Width: 1200
VWidth: 1950
Flags: W
LayerCount: 2
Fore
SplineSet
520 940 m 1,0,-1
 520 460 l 1,1,-1
 80 460 l 1,2,-1
 80 940 l 1,3,-1
 520 940 l 1,0,-1
1120 940 m 1,4,-1
 1120 460 l 1,5,-1
 680 460 l 1,6,-1
 680 940 l 1,7,-1
 1120 940 l 1,4,-1
EndSplineSet
Validated: 1
EndChar

StartChar: uni254E
Encoding: 9550 9550 177
Width: 1200
VWidth: 1950
Flags: W
LayerCount: 2
Fore
SplineSet
680 2200 m 1,0,-1
 680 920 l 1,1,-1
 520 920 l 1,2,-1
 520 2200 l 1,3,-1
 680 2200 l 1,0,-1
680 760 m 1,4,-1
 680 -520 l 1,5,-1
 520 -520 l 1,6,-1
 520 760 l 1,7,-1
 680 760 l 1,4,-1
EndSplineSet
Validated: 1
EndChar

StartChar: uni254F
Encoding: 9551 9551 178
Width: 1200
VWidth: 1950
Flags: W
LayerCount: 2
Fore
SplineSet
840 2040 m 1,0,-1
 840 1080 l 1,1,-1
 360 1080 l 1,2,-1
 360 2040 l 1,3,-1
 840 2040 l 1,0,-1
840 600 m 1,4,-1
 840 -360 l 1,5,-1
 360 -360 l 1,6,-1
 360 600 l 1,7,-1
 840 600 l 1,4,-1
EndSplineSet
Validated: 1
EndChar

StartChar: SF430000
Encoding: 9552 9552 179
Width: 1200
VWidth: 1950
Flags: W
LayerCount: 2
Fore
SplineSet
1210 940 m 1,0,-1
 1210 780 l 1,1,-1
 -10 780 l 1,2,-1
 -10 940 l 1,3,-1
 1210 940 l 1,0,-1
1210 620 m 1,4,-1
 1210 460 l 1,5,-1
 -10 460 l 1,6,-1
 -10 620 l 1,7,-1
 1210 620 l 1,4,-1
EndSplineSet
Validated: 1
EndChar

StartChar: SF240000
Encoding: 9553 9553 180
Width: 1200
VWidth: 1950
Flags: W
LayerCount: 2
Fore
SplineSet
520 2000 m 1,0,-1
 520 -1000 l 1,1,-1
 360 -1000 l 1,2,-1
 360 2000 l 1,3,-1
 520 2000 l 1,0,-1
840 2000 m 1,4,-1
 840 -1000 l 1,5,-1
 680 -1000 l 1,6,-1
 680 2000 l 1,7,-1
 840 2000 l 1,4,-1
EndSplineSet
Validated: 1
EndChar

StartChar: SF510000
Encoding: 9554 9554 181
Width: 1200
VWidth: 1950
Flags: W
LayerCount: 2
Fore
SplineSet
1210 940 m 1,0,-1
 1210 780 l 1,1,-1
 680 780 l 1,2,-1
 680 620 l 1,3,-1
 1210 620 l 1,4,-1
 1210 460 l 1,5,-1
 680 460 l 1,6,-1
 680 -1000 l 1,7,-1
 520 -1000 l 1,8,-1
 520 940 l 1,9,-1
 1210 940 l 1,0,-1
EndSplineSet
Validated: 1
EndChar

StartChar: SF520000
Encoding: 9555 9555 182
Width: 1200
VWidth: 1950
Flags: W
LayerCount: 2
Fore
SplineSet
1210 780 m 1,0,-1
 1210 620 l 1,1,-1
 840 620 l 1,2,-1
 840 -1000 l 1,3,-1
 680 -1000 l 1,4,-1
 680 620 l 1,5,-1
 520 620 l 1,6,-1
 520 -1000 l 1,7,-1
 360 -1000 l 1,8,-1
 360 780 l 1,9,-1
 1210 780 l 1,0,-1
EndSplineSet
Validated: 1
EndChar

StartChar: SF390000
Encoding: 9556 9556 183
Width: 1200
VWidth: 1950
Flags: W
LayerCount: 2
Fore
SplineSet
1210 940 m 1,0,-1
 1210 780 l 1,1,-1
 520 780 l 1,2,-1
 520 -1000 l 1,3,-1
 360 -1000 l 1,4,-1
 360 940 l 1,5,-1
 1210 940 l 1,0,-1
1210 620 m 1,6,-1
 1210 460 l 1,7,-1
 840 460 l 1,8,-1
 840 -1000 l 1,9,-1
 680 -1000 l 1,10,-1
 680 620 l 1,11,-1
 1210 620 l 1,6,-1
EndSplineSet
Validated: 1
EndChar

StartChar: SF220000
Encoding: 9557 9557 184
Width: 1200
VWidth: 1950
Flags: W
LayerCount: 2
Fore
SplineSet
680 940 m 1,0,-1
 680 -1000 l 1,1,-1
 520 -1000 l 1,2,-1
 520 460 l 1,3,-1
 -10 460 l 1,4,-1
 -10 620 l 1,5,-1
 520 620 l 1,6,-1
 520 780 l 1,7,-1
 -10 780 l 1,8,-1
 -10 940 l 1,9,-1
 680 940 l 1,0,-1
EndSplineSet
Validated: 1
EndChar

StartChar: SF210000
Encoding: 9558 9558 185
Width: 1200
VWidth: 1950
Flags: W
LayerCount: 2
Fore
SplineSet
840 780 m 1,0,-1
 840 -1000 l 1,1,-1
 680 -1000 l 1,2,-1
 680 620 l 1,3,-1
 520 620 l 1,4,-1
 520 -1000 l 1,5,-1
 360 -1000 l 1,6,-1
 360 620 l 1,7,-1
 -10 620 l 1,8,-1
 -10 780 l 1,9,-1
 840 780 l 1,0,-1
EndSplineSet
Validated: 1
EndChar

StartChar: SF250000
Encoding: 9559 9559 186
Width: 1200
VWidth: 1950
Flags: W
LayerCount: 2
Fore
SplineSet
840 940 m 1,0,-1
 840 -1000 l 1,1,-1
 680 -1000 l 1,2,-1
 680 780 l 1,3,-1
 -10 780 l 1,4,-1
 -10 940 l 1,5,-1
 840 940 l 1,0,-1
520 620 m 1,6,-1
 520 -1000 l 1,7,-1
 360 -1000 l 1,8,-1
 360 460 l 1,9,-1
 -10 460 l 1,10,-1
 -10 620 l 1,11,-1
 520 620 l 1,6,-1
EndSplineSet
Validated: 1
EndChar

StartChar: SF500000
Encoding: 9560 9560 187
Width: 1200
VWidth: 1950
Flags: W
LayerCount: 2
Fore
SplineSet
680 2000 m 1,0,-1
 680 940 l 1,1,-1
 1210 940 l 1,2,-1
 1210 780 l 1,3,-1
 680 780 l 1,4,-1
 680 620 l 1,5,-1
 1210 620 l 1,6,-1
 1210 460 l 1,7,-1
 520 460 l 1,8,-1
 520 2000 l 1,9,-1
 680 2000 l 1,0,-1
EndSplineSet
Validated: 1
EndChar

StartChar: SF490000
Encoding: 9561 9561 188
Width: 1200
VWidth: 1950
Flags: W
LayerCount: 2
Fore
SplineSet
840 2000 m 1,0,-1
 840 780 l 1,1,-1
 1210 780 l 1,2,-1
 1210 620 l 1,3,-1
 360 620 l 1,4,-1
 360 2000 l 1,5,-1
 520 2000 l 1,6,-1
 520 780 l 1,7,-1
 680 780 l 1,8,-1
 680 2000 l 1,9,-1
 840 2000 l 1,0,-1
EndSplineSet
Validated: 1
EndChar

StartChar: SF380000
Encoding: 9562 9562 189
Width: 1200
VWidth: 1950
Flags: W
LayerCount: 2
Fore
SplineSet
520 2000 m 1,0,-1
 520 620 l 1,1,-1
 1210 620 l 1,2,-1
 1210 460 l 1,3,-1
 360 460 l 1,4,-1
 360 2000 l 1,5,-1
 520 2000 l 1,0,-1
840 2000 m 1,6,-1
 840 940 l 1,7,-1
 1210 940 l 1,8,-1
 1210 780 l 1,9,-1
 680 780 l 1,10,-1
 680 2000 l 1,11,-1
 840 2000 l 1,6,-1
EndSplineSet
Validated: 1
EndChar

StartChar: SF280000
Encoding: 9563 9563 190
Width: 1200
VWidth: 1950
Flags: W
LayerCount: 2
Fore
SplineSet
680 2000 m 1,0,-1
 680 460 l 1,1,-1
 -10 460 l 1,2,-1
 -10 620 l 1,3,-1
 520 620 l 1,4,-1
 520 780 l 1,5,-1
 -10 780 l 1,6,-1
 -10 940 l 1,7,-1
 520 940 l 1,8,-1
 520 2000 l 1,9,-1
 680 2000 l 1,0,-1
EndSplineSet
Validated: 1
EndChar

StartChar: SF270000
Encoding: 9564 9564 191
Width: 1200
VWidth: 1950
Flags: W
LayerCount: 2
Fore
SplineSet
840 2000 m 1,0,-1
 840 620 l 1,1,-1
 -10 620 l 1,2,-1
 -10 780 l 1,3,-1
 360 780 l 1,4,-1
 360 2000 l 1,5,-1
 520 2000 l 1,6,-1
 520 780 l 1,7,-1
 680 780 l 1,8,-1
 680 2000 l 1,9,-1
 840 2000 l 1,0,-1
EndSplineSet
Validated: 1
EndChar

StartChar: SF260000
Encoding: 9565 9565 192
Width: 1200
VWidth: 1950
Flags: W
LayerCount: 2
Fore
SplineSet
840 2000 m 1,0,-1
 840 460 l 1,1,-1
 -10 460 l 1,2,-1
 -10 620 l 1,3,-1
 680 620 l 1,4,-1
 680 2000 l 1,5,-1
 840 2000 l 1,0,-1
520 2000 m 1,6,-1
 520 780 l 1,7,-1
 -10 780 l 1,8,-1
 -10 940 l 1,9,-1
 360 940 l 1,10,-1
 360 2000 l 1,11,-1
 520 2000 l 1,6,-1
EndSplineSet
Validated: 1
EndChar

StartChar: SF360000
Encoding: 9566 9566 193
Width: 1200
VWidth: 1950
Flags: W
LayerCount: 2
Fore
SplineSet
680 2000 m 1,0,-1
 680 940 l 1,1,-1
 1210 940 l 1,2,-1
 1210 780 l 1,3,-1
 680 780 l 1,4,-1
 680 620 l 1,5,-1
 1210 620 l 1,6,-1
 1210 460 l 1,7,-1
 680 460 l 1,8,-1
 680 -1000 l 1,9,-1
 520 -1000 l 1,10,-1
 520 2000 l 1,11,-1
 680 2000 l 1,0,-1
EndSplineSet
Validated: 1
EndChar

StartChar: SF370000
Encoding: 9567 9567 194
Width: 1200
VWidth: 1950
Flags: W
LayerCount: 2
Fore
SplineSet
520 2000 m 1,0,-1
 520 -1000 l 1,1,-1
 360 -1000 l 1,2,-1
 360 2000 l 1,3,-1
 520 2000 l 1,0,-1
840 2000 m 1,4,-1
 840 780 l 1,5,-1
 1210 780 l 1,6,-1
 1210 620 l 1,7,-1
 840 620 l 1,8,-1
 840 -1000 l 1,9,-1
 680 -1000 l 1,10,-1
 680 2000 l 1,11,-1
 840 2000 l 1,4,-1
EndSplineSet
Validated: 1
EndChar

StartChar: SF420000
Encoding: 9568 9568 195
Width: 1200
VWidth: 1950
Flags: W
LayerCount: 2
Fore
SplineSet
520 2000 m 1,0,-1
 520 -1000 l 1,1,-1
 360 -1000 l 1,2,-1
 360 2000 l 1,3,-1
 520 2000 l 1,0,-1
840 2000 m 1,4,-1
 840 940 l 1,5,-1
 1210 940 l 1,6,-1
 1210 780 l 1,7,-1
 680 780 l 1,8,-1
 680 2000 l 1,9,-1
 840 2000 l 1,4,-1
1210 620 m 1,10,-1
 1210 460 l 1,11,-1
 840 460 l 1,12,-1
 840 -1000 l 1,13,-1
 680 -1000 l 1,14,-1
 680 620 l 1,15,-1
 1210 620 l 1,10,-1
EndSplineSet
Validated: 1
EndChar

StartChar: SF190000
Encoding: 9569 9569 196
Width: 1200
VWidth: 1950
Flags: W
LayerCount: 2
Fore
SplineSet
680 2000 m 1,0,-1
 680 -1000 l 1,1,-1
 520 -1000 l 1,2,-1
 520 460 l 1,3,-1
 -10 460 l 1,4,-1
 -10 620 l 1,5,-1
 520 620 l 1,6,-1
 520 780 l 1,7,-1
 -10 780 l 1,8,-1
 -10 940 l 1,9,-1
 520 940 l 1,10,-1
 520 2000 l 1,11,-1
 680 2000 l 1,0,-1
EndSplineSet
Validated: 1
EndChar

StartChar: SF200000
Encoding: 9570 9570 197
Width: 1200
VWidth: 1950
Flags: W
LayerCount: 2
Fore
SplineSet
520 2000 m 1,0,-1
 520 -1000 l 1,1,-1
 360 -1000 l 1,2,-1
 360 620 l 1,3,-1
 -10 620 l 1,4,-1
 -10 780 l 1,5,-1
 360 780 l 1,6,-1
 360 2000 l 1,7,-1
 520 2000 l 1,0,-1
840 2000 m 1,8,-1
 840 -1000 l 1,9,-1
 680 -1000 l 1,10,-1
 680 2000 l 1,11,-1
 840 2000 l 1,8,-1
EndSplineSet
Validated: 1
EndChar

StartChar: SF230000
Encoding: 9571 9571 198
Width: 1200
VWidth: 1950
Flags: W
LayerCount: 2
Fore
SplineSet
520 2000 m 1,0,-1
 520 780 l 1,1,-1
 -10 780 l 1,2,-1
 -10 940 l 1,3,-1
 360 940 l 1,4,-1
 360 2000 l 1,5,-1
 520 2000 l 1,0,-1
840 2000 m 1,6,-1
 840 -1000 l 1,7,-1
 680 -1000 l 1,8,-1
 680 2000 l 1,9,-1
 840 2000 l 1,6,-1
520 620 m 1,10,-1
 520 -1000 l 1,11,-1
 360 -1000 l 1,12,-1
 360 460 l 1,13,-1
 -10 460 l 1,14,-1
 -10 620 l 1,15,-1
 520 620 l 1,10,-1
EndSplineSet
Validated: 1
EndChar

StartChar: SF470000
Encoding: 9572 9572 199
Width: 1200
VWidth: 1950
Flags: W
LayerCount: 2
Fore
SplineSet
1210 940 m 1,0,-1
 1210 780 l 1,1,-1
 -10 780 l 1,2,-1
 -10 940 l 1,3,-1
 1210 940 l 1,0,-1
1210 620 m 1,4,-1
 1210 460 l 1,5,-1
 680 460 l 1,6,-1
 680 -1000 l 1,7,-1
 520 -1000 l 1,8,-1
 520 460 l 1,9,-1
 -10 460 l 1,10,-1
 -10 620 l 1,11,-1
 1210 620 l 1,4,-1
EndSplineSet
Validated: 1
EndChar

StartChar: SF480000
Encoding: 9573 9573 200
Width: 1200
VWidth: 1950
Flags: W
LayerCount: 2
Fore
SplineSet
1210 780 m 1,0,-1
 1210 620 l 1,1,-1
 840 620 l 1,2,-1
 840 -1000 l 1,3,-1
 680 -1000 l 1,4,-1
 680 620 l 1,5,-1
 520 620 l 1,6,-1
 520 -1000 l 1,7,-1
 360 -1000 l 1,8,-1
 360 620 l 1,9,-1
 -10 620 l 1,10,-1
 -10 780 l 1,11,-1
 1210 780 l 1,0,-1
EndSplineSet
Validated: 1
EndChar

StartChar: SF410000
Encoding: 9574 9574 201
Width: 1200
VWidth: 1950
Flags: W
LayerCount: 2
Fore
SplineSet
1210 940 m 1,0,-1
 1210 780 l 1,1,-1
 -10 780 l 1,2,-1
 -10 940 l 1,3,-1
 1210 940 l 1,0,-1
520 620 m 1,4,-1
 520 -1000 l 1,5,-1
 360 -1000 l 1,6,-1
 360 460 l 1,7,-1
 -10 460 l 1,8,-1
 -10 620 l 1,9,-1
 520 620 l 1,4,-1
1210 620 m 1,10,-1
 1210 460 l 1,11,-1
 840 460 l 1,12,-1
 840 -1000 l 1,13,-1
 680 -1000 l 1,14,-1
 680 620 l 1,15,-1
 1210 620 l 1,10,-1
EndSplineSet
Validated: 1
EndChar

StartChar: SF450000
Encoding: 9575 9575 202
Width: 1200
VWidth: 1950
Flags: W
LayerCount: 2
Fore
SplineSet
680 2000 m 1,0,-1
 680 940 l 1,1,-1
 1210 940 l 1,2,-1
 1210 780 l 1,3,-1
 -10 780 l 1,4,-1
 -10 940 l 1,5,-1
 520 940 l 1,6,-1
 520 2000 l 1,7,-1
 680 2000 l 1,0,-1
1210 620 m 1,8,-1
 1210 460 l 1,9,-1
 -10 460 l 1,10,-1
 -10 620 l 1,11,-1
 1210 620 l 1,8,-1
EndSplineSet
Validated: 1
EndChar

StartChar: SF460000
Encoding: 9576 9576 203
Width: 1200
VWidth: 1950
Flags: W
LayerCount: 2
Fore
SplineSet
840 2000 m 1,0,-1
 840 780 l 1,1,-1
 1210 780 l 1,2,-1
 1210 620 l 1,3,-1
 -10 620 l 1,4,-1
 -10 780 l 1,5,-1
 360 780 l 1,6,-1
 360 2000 l 1,7,-1
 520 2000 l 1,8,-1
 520 780 l 1,9,-1
 680 780 l 1,10,-1
 680 2000 l 1,11,-1
 840 2000 l 1,0,-1
EndSplineSet
Validated: 1
EndChar

StartChar: SF400000
Encoding: 9577 9577 204
Width: 1200
VWidth: 1950
Flags: W
LayerCount: 2
Fore
SplineSet
520 2000 m 1,0,-1
 520 780 l 1,1,-1
 -10 780 l 1,2,-1
 -10 940 l 1,3,-1
 360 940 l 1,4,-1
 360 2000 l 1,5,-1
 520 2000 l 1,0,-1
840 2000 m 1,6,-1
 840 940 l 1,7,-1
 1210 940 l 1,8,-1
 1210 780 l 1,9,-1
 680 780 l 1,10,-1
 680 2000 l 1,11,-1
 840 2000 l 1,6,-1
1210 620 m 1,12,-1
 1210 460 l 1,13,-1
 -10 460 l 1,14,-1
 -10 620 l 1,15,-1
 1210 620 l 1,12,-1
EndSplineSet
Validated: 1
EndChar

StartChar: SF540000
Encoding: 9578 9578 205
Width: 1200
VWidth: 1950
Flags: W
LayerCount: 2
Fore
SplineSet
680 2000 m 1,0,-1
 680 940 l 1,1,-1
 1210 940 l 1,2,-1
 1210 780 l 1,3,-1
 680 780 l 1,4,-1
 680 620 l 1,5,-1
 1210 620 l 1,6,-1
 1210 460 l 1,7,-1
 680 460 l 1,8,-1
 680 -1000 l 1,9,-1
 520 -1000 l 1,10,-1
 520 460 l 1,11,-1
 -10 460 l 1,12,-1
 -10 620 l 1,13,-1
 520 620 l 1,14,-1
 520 780 l 1,15,-1
 -10 780 l 1,16,-1
 -10 940 l 1,17,-1
 520 940 l 1,18,-1
 520 2000 l 1,19,-1
 680 2000 l 1,0,-1
EndSplineSet
Validated: 1
EndChar

StartChar: SF530000
Encoding: 9579 9579 206
Width: 1200
VWidth: 1950
Flags: W
LayerCount: 2
Fore
SplineSet
840 2000 m 1,0,-1
 840 780 l 1,1,-1
 1210 780 l 1,2,-1
 1210 620 l 1,3,-1
 840 620 l 1,4,-1
 840 -1000 l 1,5,-1
 680 -1000 l 1,6,-1
 680 620 l 1,7,-1
 520 620 l 1,8,-1
 520 -1000 l 1,9,-1
 360 -1000 l 1,10,-1
 360 620 l 1,11,-1
 -10 620 l 1,12,-1
 -10 780 l 1,13,-1
 360 780 l 1,14,-1
 360 2000 l 1,15,-1
 520 2000 l 1,16,-1
 520 780 l 1,17,-1
 680 780 l 1,18,-1
 680 2000 l 1,19,-1
 840 2000 l 1,0,-1
EndSplineSet
Validated: 1
EndChar

StartChar: SF440000
Encoding: 9580 9580 207
Width: 1200
VWidth: 1950
Flags: W
LayerCount: 2
Fore
SplineSet
520 2000 m 1,0,-1
 520 780 l 1,1,-1
 -10 780 l 1,2,-1
 -10 940 l 1,3,-1
 360 940 l 1,4,-1
 360 2000 l 1,5,-1
 520 2000 l 1,0,-1
840 2000 m 1,6,-1
 840 940 l 1,7,-1
 1210 940 l 1,8,-1
 1210 780 l 1,9,-1
 680 780 l 1,10,-1
 680 2000 l 1,11,-1
 840 2000 l 1,6,-1
520 620 m 1,12,-1
 520 -1000 l 1,13,-1
 360 -1000 l 1,14,-1
 360 460 l 1,15,-1
 -10 460 l 1,16,-1
 -10 620 l 1,17,-1
 520 620 l 1,12,-1
1210 620 m 1,18,-1
 1210 460 l 1,19,-1
 840 460 l 1,20,-1
 840 -1000 l 1,21,-1
 680 -1000 l 1,22,-1
 680 620 l 1,23,-1
 1210 620 l 1,18,-1
EndSplineSet
Validated: 1
EndChar

StartChar: uni256D
Encoding: 9581 9581 208
Width: 1200
VWidth: 1950
Flags: W
LayerCount: 2
Fore
SplineSet
1651 780 m 5,0,-1
 1651 620 l 5,1,-1
 1060 620 l 2,2,3
 904 620 904 620 792 508 c 128,-1,5
 680 396 680 396 680 240 c 2,6,-1
 680 -256 l 1,7,-1
 520 -256 l 1,8,-1
 520 240 l 2,9,10
 520 388 520 388 592.5 511 c 0,11,12
 662 629 662 629 789 707.5 c 0,13,14
 906 780 906 780 1060 780 c 2,15,-1
 1651 780 l 5,0,-1
EndSplineSet
EndChar

StartChar: uni256E
Encoding: 9582 9582 209
Width: 1200
VWidth: 1950
Flags: W
LayerCount: 2
Fore
SplineSet
140 780 m 2,0,1
 293 780 293 780 411 707.5 c 0,2,3
 540 629 540 629 607.5 511 c 0,4,5
 680 384 680 384 680 240 c 2,6,-1
 680 -256 l 5,7,-1
 520 -256 l 5,8,-1
 520 240 l 2,9,10
 520 396 520 396 408 508 c 128,-1,11
 296 620 296 620 140 620 c 2,12,-1
 -401 620 l 1,13,-1
 -401 780 l 1,14,-1
 140 780 l 2,0,1
EndSplineSet
EndChar

StartChar: uni256F
Encoding: 9583 9583 210
Width: 1200
VWidth: 1950
Flags: W
LayerCount: 2
Fore
SplineSet
-398 620 m 1,0,-1
 -398 780 l 1,1,-1
 140 780 l 2,2,3
 296 780 296 780 408 892 c 128,-1,4
 520 1004 520 1004 520 1160 c 2,5,-1
 520 1791 l 5,6,-1
 680 1791 l 5,7,-1
 680 1160 l 2,8,9
 680 1012 680 1012 607.5 889 c 0,10,11
 536 767 536 767 411 692.5 c 0,12,13
 288 620 288 620 140 620 c 2,14,-1
 -398 620 l 1,0,-1
EndSplineSet
EndChar

StartChar: uni2570
Encoding: 9584 9584 211
Width: 1200
VWidth: 1950
Flags: W
LayerCount: 2
Fore
SplineSet
1060 620 m 2,0,1
 913 620 913 620 789 692.5 c 0,2,3
 654 771 654 771 592.5 889 c 0,4,5
 520 1027 520 1027 520 1160 c 2,6,-1
 520 1796 l 1,7,-1
 680 1796 l 1,8,-1
 680 1160 l 2,9,10
 680 1004 680 1004 792 892 c 128,-1,11
 904 780 904 780 1060 780 c 2,12,-1
 1650 780 l 5,13,-1
 1650 620 l 5,14,-1
 1060 620 l 2,0,1
EndSplineSet
EndChar
